<?xml version="1.0" encoding="UTF-8" standalone="no"?>
<!-- Created with Inkscape (http://www.inkscape.org/) -->

<svg
   width="100mm"
   height="100mm"
   viewBox="0 0 100 100"
   version="1.1"
   id="svg1"
   inkscape:export-filename="hair1.svg"
   inkscape:export-xdpi="96"
   inkscape:export-ydpi="96"
   inkscape:version="1.3.2 (091e20e, 2023-11-25, custom)"
   sodipodi:docname="avatars.svg"
   xmlns:inkscape="http://www.inkscape.org/namespaces/inkscape"
   xmlns:sodipodi="http://sodipodi.sourceforge.net/DTD/sodipodi-0.dtd"
   xmlns="http://www.w3.org/2000/svg"
   xmlns:svg="http://www.w3.org/2000/svg">
  <sodipodi:namedview
     id="namedview1"
     pagecolor="#ffffff"
     bordercolor="#000000"
     borderopacity="0.25"
     inkscape:showpageshadow="2"
     inkscape:pageopacity="0.0"
     inkscape:pagecheckerboard="0"
     inkscape:deskcolor="#d1d1d1"
     inkscape:document-units="mm"
     showguides="true"
     inkscape:zoom="2.0704688"
     inkscape:cx="196.57384"
     inkscape:cy="173.14919"
     inkscape:window-width="960"
     inkscape:window-height="1017"
     inkscape:window-x="2872"
     inkscape:window-y="-8"
     inkscape:window-maximized="0"
     inkscape:current-layer="layer1" />
  <defs
     id="defs1">
    <inkscape:path-effect
       effect="fillet_chamfer"
       id="path-effect15"
       is_visible="true"
       lpeversion="1"
       nodesatellites_param="F,0,1,1,0,33.130649,0,1 @ F,0,0,1,0,33.130649,0,1 @ F,0,0,1,0,0,0,1 @ F,0,0,1,0,0,0,1"
       radius="0"
       unit="px"
       method="auto"
       mode="F"
       chamfer_steps="1"
       flexible="false"
       use_knot_distance="true"
       apply_no_radius="true"
       apply_with_radius="true"
       only_selected="false"
       hide_knots="false" />
  </defs>
  <g
     inkscape:label="Skin"
     inkscape:groupmode="layer"
     id="layer1"
     style="display:none;fill:#ffccaa;fill-opacity:1;stroke:none;stroke-opacity:1">
    <path
       id="rect14"
       d="m 36.93645,66.236137 h 26.1271 A 33.130649,33.130649 45 0 1 96.194199,99.366786 V 100 H 3.8058014 V 99.366786 A 33.130649,33.130649 135 0 1 36.93645,66.236137 Z"
       style="fill:#ffccaa;fill-opacity:1;stroke:none;stroke-width:0.669228;stroke-opacity:1"
       sodipodi:nodetypes="ccccc"
       inkscape:path-effect="#path-effect15"
       inkscape:original-d="M 3.8058014,66.236137 H 96.194199 V 100 H 3.8058014 Z" />
    <rect
       style="display:inline;fill:#ffccaa;fill-opacity:1;stroke:none;stroke-width:0.487636;stroke-dasharray:none;stroke-opacity:1"
       id="rect17"
       width="16"
       height="18.268576"
       x="42"
       y="58.423267" />
    <path
       id="rect15"
       style="display:inline;fill:#ffccaa;fill-opacity:1;stroke:none;stroke-width:0.499999;stroke-dasharray:none;stroke-opacity:1"
       d="m 47.721376,5.1392212 c -11.724026,0 -21.162533,9.4385038 -21.162533,21.1625328 v 4.245735 c -6e-6,0.0069 -5.17e-4,0.01374 -5.17e-4,0.02067 v 10.129097 c 0,11.724073 9.43846,21.162533 21.162533,21.162533 h 4.521688 c 11.724072,0 21.162532,-9.43846 21.162532,-21.162533 v -4.917012 h 5.17e-4 v -9.478491 c 0,-11.724029 -9.438507,-21.1625328 -21.162532,-21.1625328 z" />
  </g>
  <g
     inkscape:groupmode="layer"
     id="layer2"
     inkscape:label="Skin Shadow"
     style="display:none">
    <path
       id="path21-3"
       style="display:inline;fill:#ffc197;fill-opacity:1;fill-rule:nonzero;stroke:none;stroke-width:0.599998;stroke-dasharray:none;stroke-opacity:1"
       d="m 79.871767,-15.911631 a 4.1706572,6.142889 0 0 1 -1.594815,-0.859068 l 1.718789,-8.561465 c 0.188374,-0.938313 0.306011,-1.87351 0.368041,-2.802316 a 4.1706572,6.142889 0 0 1 0.0521,-0.01002 4.1706572,6.142889 0 0 1 4.170937,6.142621 4.1706572,6.142889 0 0 1 -4.170959,6.142826 4.1706572,6.142889 0 0 1 -0.544091,-0.05258 z M 30.703728,-26.358526 a 4.1729149,6.1395655 22.581868 0 1 -0.522431,-0.163099 4.1729149,6.1395655 22.581868 0 1 -1.474772,-7.284536 4.1729149,6.1395655 22.581868 0 1 6.215223,-4.042804 4.1729149,6.1395655 22.581868 0 1 0.04741,0.03172 c -0.377442,1.024475 -0.682371,2.091119 -0.904324,3.196689 l -1.627882,8.108649 a 4.1729149,6.1395655 22.581868 0 1 -1.733222,0.153377 z"
       transform="matrix(0.98014713,0.19827152,0.19677305,-0.98044908,0,0)" />
    <path
       id="path22"
       style="display:inline;fill:#ffc197;fill-opacity:1;fill-rule:nonzero;stroke:none;stroke-width:0.500588;stroke-dasharray:none;stroke-opacity:1"
       d="m 57.998527,61.072758 c -1.82427,0.509448 -3.746992,0.787549 -5.738151,0.787549 h -4.521688 c -1.989666,0 -3.910964,-0.277805 -5.734017,-0.786515 a 8,4.6801915 0 0 0 -0.0047,0.03979 A 8,4.6801915 0 0 0 50,65.793917 a 8,4.6801915 0 0 0 8.000028,-4.680335 8,4.6801915 0 0 0 -0.0015,-0.04082 z" />
  </g>
  <g
     inkscape:groupmode="layer"
     id="layer12"
     inkscape:label="Beard1"
     style="display:none;fill:#552200">
    <path
       id="rect15-7"
       style="display:inline;fill:#552200;fill-opacity:1;stroke:none;stroke-width:0.499999;stroke-dasharray:none;stroke-opacity:1"
       d="M 50.000049,45.433919 A 22.474588,1.3576881 0 0 0 27.574028,46.7434 h -0.12299 c 2.590112,8.758795 10.666967,15.11639 20.28765,15.11639 h 4.521688 c 9.620646,0 17.697504,-6.357647 20.287651,-15.11639 H 72.45811 A 22.474588,1.3576881 0 0 0 50.000049,45.433919 Z m 0,2.327507 a 7,4.3095236 0 0 1 7.000089,4.309814 7,4.3095236 0 0 1 -0.0186,0.17415 c 0.011,0.07573 0.0186,0.152638 0.0186,0.23151 v 2.356446 c 0,0.879624 -0.708392,1.5875 -1.588016,1.5875 H 44.587976 c -0.879624,0 -1.588017,-0.707876 -1.588017,-1.5875 V 52.4769 c 0,-0.07887 0.0076,-0.155783 0.0186,-0.23151 a 7,4.3095236 0 0 1 -0.0186,-0.17415 7,4.3095236 0 0 1 7.00009,-4.309814 z" />
  </g>
  <g
     inkscape:groupmode="layer"
     id="g35"
     inkscape:label="Beard2"
     style="display:none;fill:#a05a2c">
    <path
       id="rect15-9"
       style="display:inline;fill:#a05a2c;fill-opacity:1;stroke:none;stroke-width:0.491622;stroke-dasharray:none;stroke-opacity:1"
       d="M 50.000049,45.433919 A 22.474588,1.3576881 0 0 0 27.574028,46.7434 h -0.12299 c 0.03217,0.108783 0.06898,0.21546 0.102836,0.323495 0.0026,1.355669 0.129218,2.679085 0.358634,3.963065 h -0.05013 c 0.03158,0.108952 0.06805,0.215808 0.101286,0.324011 0.02257,11.834314 8.88593,21.354769 19.893359,21.354769 h 4.250387 c 10.97015,0 19.808663,-9.456875 19.890775,-21.235396 0.04634,-0.147774 0.09526,-0.2942 0.138493,-0.443384 h -0.08837 c 0.222693,-1.246376 0.349288,-2.529473 0.358635,-3.843693 0.0472,-0.147545 0.09703,-0.293914 0.141077,-0.442867 H 72.45811 A 22.474588,1.3576881 0 0 0 50.000049,45.433919 Z m 0,2.327507 a 7,4.3095236 0 0 1 7.000089,4.309814 7,4.3095236 0 0 1 -0.0186,0.17415 c 0.011,0.07573 0.0186,0.152638 0.0186,0.23151 v 2.356446 c 0,0.879622 -0.708394,1.5875 -1.588016,1.5875 H 44.587976 c -0.879622,0 -1.588017,-0.707878 -1.588017,-1.5875 V 52.4769 c 0,-0.07887 0.0076,-0.155783 0.0186,-0.23151 a 7,4.3095236 0 0 1 -0.0186,-0.17415 7,4.3095236 0 0 1 7.00009,-4.309814 z" />
  </g>
  <g
     inkscape:groupmode="layer"
     id="layer13"
     inkscape:label="Beard3"
     style="display:none">
    <path
       id="path12"
       style="fill:#2b1100;stroke-width:0.420229"
       d="m 47.886272,44.176118 a 2.297024,2.2744749 47.98205 0 0 -0.705551,0.105737 2.297024,2.2744749 47.98205 0 0 -0.988033,0.639858 5.1404802,5.0543264 0 0 1 -0.471032,0.811972 2.297024,2.2744749 47.98205 0 0 -0.0486,0.147158 2.868518,2.8322132 0 0 1 -0.01443,-0.06114 5.1404802,5.0543264 0 0 1 -4.147249,2.070678 5.1404802,5.0543264 0 0 1 -3.463377,-1.330297 6.3562629,6.3562629 0 0 0 6.13055,4.712212 6.3562629,6.3562629 0 0 0 5.821775,-3.81681 6.3562629,6.3562629 0 0 0 5.821124,3.81681 6.3562629,6.3562629 0 0 0 6.130551,-4.712212 5.1404802,5.0543264 0 0 1 -3.463377,1.330297 5.1404802,5.0543264 0 0 1 -4.14725,-2.070678 2.868518,2.8322132 0 0 1 -0.01443,0.06114 2.2744749,2.297024 42.01795 0 0 -0.0486,-0.147158 5.1404802,5.0543264 0 0 1 -0.471032,-0.811972 2.2744749,2.297024 42.01795 0 0 -0.988035,-0.639858 2.2744749,2.297024 42.01795 0 0 -0.70555,-0.105737 2.2744749,2.297024 42.01795 0 0 -2.113369,1.465633 2.297024,2.2744749 47.98205 0 0 -2.114019,-1.465633 z m 2.11337,3.148709 a 2.2744749,2.297024 42.01795 0 0 0.02304,0.06441 2.868518,2.8322132 0 0 1 -0.02231,0.01443 2.868518,2.8322132 0 0 1 -0.02303,-0.01443 2.297024,2.2744749 47.98205 0 0 0.02231,-0.06441 z m -0.02628,0.07679 a 6.3562629,6.3562629 0 0 0 0.0072,0.01509 2.868518,2.8322132 0 0 1 -0.01649,0.01007 2.297024,2.2744749 47.98205 0 0 0.0087,-0.02561 z m 0.05321,0 a 2.2744749,2.297024 42.01795 0 0 0.0087,0.02563 2.868518,2.8322132 0 0 1 -0.01649,-0.01007 6.3562629,6.3562629 0 0 0 0.0072,-0.01509 z" />
  </g>
  <g
     inkscape:groupmode="layer"
     id="g26"
     inkscape:label="Beard4"
     style="display:none;fill:#552200">
    <path
       id="path26"
       style="display:inline;fill:#2b1100;fill-opacity:1;stroke:none;stroke-width:0.516889;stroke-dasharray:none;stroke-opacity:1"
       d="m 47.886483,44.176115 a 2.297024,2.2744749 47.98205 0 0 -0.7059,0.105937 2.297024,2.2744749 47.98205 0 0 -0.988054,0.639754 5.1404802,5.0543264 0 0 1 -0.470772,0.811837 2.297024,2.2744749 47.98205 0 0 -0.04858,0.147277 2.868518,2.8322132 0 0 1 -0.01447,-0.0615 5.1404802,5.0543264 0 0 1 -4.147551,2.070675 5.1404802,5.0543264 0 0 1 -3.463354,-1.330151 6.3562629,6.3562629 0 0 0 3.714502,4.209562 c -0.0087,0.135082 -0.01499,0.270526 -0.01499,0.407727 v 6.009452 c 0,2.557773 1.872578,5.264504 4.254003,5.469951 0.57274,0.04941 1.15229,0.07493 1.737362,0.07493 h 4.521688 c 0.486377,0 0.968987,-0.01793 1.44694,-0.05219 2.544282,-0.182412 4.545976,-3.07576 4.545976,-5.806364 v -5.247741 c 0,-0.284347 -0.01819,-0.564497 -0.05219,-0.839742 a 6.3562629,6.3562629 0 0 0 3.750675,-4.225582 5.1404802,5.0543264 0 0 1 -3.463354,1.330151 5.1404802,5.0543264 0 0 1 -4.147034,-2.070675 2.868518,2.8322132 0 0 1 -0.01447,0.0615 2.2744749,2.297024 42.01795 0 0 -0.04858,-0.147277 5.1404802,5.0543264 0 0 1 -0.470773,-0.811837 2.2744749,2.297024 42.01795 0 0 -0.988053,-0.639754 2.2744749,2.297024 42.01795 0 0 -0.7059,-0.105937 2.2744749,2.297024 42.01795 0 0 -2.113049,1.465544 2.297024,2.2744749 47.98205 0 0 -2.114083,-1.465544 z m 2.113049,3.148645 a 2.2744749,2.297024 42.01795 0 0 0.02325,0.0646 2.868518,2.8322132 0 0 1 -0.02222,0.01447 2.868518,2.8322132 0 0 1 -0.02325,-0.01447 2.297024,2.2744749 47.98205 0 0 0.02222,-0.0646 z m -0.02687,0.07648 5.17e-4,5.17e-4 a 6.3562629,6.3562629 0 0 0 0.0072,0.01499 2.868518,2.8322132 0 0 1 -0.01654,0.0098 2.297024,2.2744749 47.98205 0 0 0.0088,-0.02532 z m 0.05374,5.17e-4 a 2.2744749,2.297024 42.01795 0 0 0.0088,0.02532 2.868518,2.8322132 0 0 1 -0.01654,-0.0098 6.3562629,6.3562629 0 0 0 0.0072,-0.01499 z m -0.02584,0.05374 a 6.3562629,6.3562629 0 0 0 5.38055,3.780131 c 0.03904,0.210312 0.06306,0.424842 0.06305,0.643889 -0.0033,0.05874 -0.0081,0.117119 -0.01447,0.1757 0.0086,0.07653 0.01447,0.154387 0.01447,0.234094 v 2.38125 c 0,0.888931 -0.550023,1.604553 -1.233516,1.604553 h -8.410857 c -0.683494,0 -1.234033,-0.715622 -1.234033,-1.604553 v -2.38125 c 0,-0.0797 0.006,-0.157567 0.01447,-0.234094 -0.0063,-0.05859 -0.01114,-0.116963 -0.01447,-0.1757 -1.8e-5,-0.219422 0.02439,-0.434267 0.06356,-0.644922 a 6.3562629,6.3562629 0 0 0 5.371249,-3.779098 z" />
  </g>
  <g
     inkscape:groupmode="layer"
     id="g27"
     inkscape:label="Beard5"
     style="display:none;fill:#552200">
    <path
       id="path27"
       style="display:inline;fill:#784421;fill-opacity:1;stroke:none;stroke-width:0.39913;stroke-dasharray:none;stroke-opacity:1"
       d="m 44.562534,58.282905 a 0.35584634,0.43061796 0 0 0 -0.355847,0.430618 c 0,0.07861 0.0023,0.157327 0.0055,0.236161 a 0.57602881,0.69706591 0 0 0 -0.005,0.03029 c 0,2.172662 1.314449,4.471864 2.986066,4.646379 0.06219,0.0065 0.124764,0.0116 0.187174,0.01712 0.0058,5.57e-4 0.01156,0.0017 0.01741,0.0022 0.0077,6.68e-4 0.01551,6.65e-4 0.02322,0.0014 0.151396,0.01285 0.30332,0.02285 0.455963,0.02985 0.02115,10e-4 0.04232,0.0018 0.06348,0.0026 0.156887,0.0064 0.314199,0.01053 0.472286,0.01053 h 7.02e-4 3.173239 7.02e-4 c 0.158151,0 0.315698,-0.0042 0.472648,-0.01053 0.02092,-8.49e-4 0.04186,-0.0017 0.06275,-0.0026 0.152946,-0.0071 0.305357,-0.01696 0.457051,-0.02985 0.0074,-6.34e-4 0.01503,-6.71e-4 0.02249,-0.0014 0.0056,-4.86e-4 0.01109,-0.0017 0.01668,-0.0022 0.06273,-0.0055 0.1254,-0.01059 0.187898,-0.01712 1.671619,-0.174515 2.986067,-2.473717 2.986067,-4.646379 a 0.5760287,0.69706578 0 0 0 -0.0033,-0.06452 c 0.0023,-0.06739 0.0036,-0.134699 0.0036,-0.201921 A 0.35584628,0.43061788 0 0 0 55.437445,58.282905 H 55.216899 44.783078 Z" />
  </g>
  <g
     inkscape:groupmode="layer"
     id="layer11"
     inkscape:label="Hair1"
     style="display:none;fill:#deaa87">
    <path
       id="rect15-6"
       style="display:inline;fill:#deaa87;fill-opacity:1;stroke:none;stroke-width:0.499999;stroke-dasharray:none;stroke-opacity:1"
       d="m 47.739353,5.1391244 c -11.724037,0 -21.162532,9.4384926 -21.162532,21.1625326 v 9.478491 h 0.554488 l 3.7052,-12.328963 0.0078,0.001 c 0.02308,-0.173543 0.115359,-0.321798 0.248564,-0.423746 a 9.6168759,4.3122552 0 0 1 9.38289,-3.415813 9.6168759,4.3122552 0 0 1 9.328629,3.275253 h 0.02481 a 9.7523246,4.3122552 0 0 1 9.562207,-3.519682 9.7523246,4.3122552 0 0 1 9.667627,3.807003 l 0.01447,-0.0021 0.03152,0.104386 c 0.02376,0.05192 0.0399,0.107087 0.04961,0.164848 l 3.708301,12.337748 h 0.56069 v -9.478491 c 0,-11.72404 -9.438496,-21.1625326 -21.162533,-21.1625326 z" />
  </g>
  <g
     inkscape:groupmode="layer"
     id="g6"
     inkscape:label="Hair2"
     style="display:inline;fill:#784421">
    <path
       id="path6"
       style="display:inline;fill:#803300;fill-opacity:1;stroke:none;stroke-width:0.512022;stroke-dasharray:none;stroke-opacity:1"
       d="m 47.639234,4.3633994 c -11.99097,0 -21.644428,9.6775066 -21.644428,21.6983616 v 9.718484 h 0.567114 l 2.397949,-7.999655 h 3.725091 l 0.492063,-12.243743 0.541216,12.243743 h 0.878419 l 0.294393,-7.316679 0.323461,7.316679 h 28.664913 l 0.859394,-13.061299 0.944486,13.061299 h 1.017952 l 0.291749,-7.2478 0.320289,7.2478 h 3.623086 l 2.398476,7.999655 h 0.573457 v -9.718484 c 0,-12.020855 -9.653458,-21.6983616 -21.644428,-21.6983616 z" />
  </g>
  <g
     inkscape:groupmode="layer"
     id="g9"
     inkscape:label="Hair3"
     style="display:none;fill:#ff7f2a">
    <path
       id="path9"
       style="display:inline;fill:#ff7f2a;fill-opacity:1;stroke:none;stroke-width:0.499999;stroke-dasharray:none;stroke-opacity:1"
       d="M 48.593416,1.2355835 A 7.0308847,6.5459962 0 0 0 42.895573,3.9734009 7.0308847,6.5459962 0 0 0 37.983728,2.109432 7.0308847,6.5459962 0 0 0 30.994491,8.1142334 7.0308847,6.5459962 0 0 0 30.014705,8.0491211 7.0308847,6.5459962 0 0 0 22.98361,14.594975 a 7.0308847,6.5459962 0 0 0 2.688208,5.129919 5.5946093,4.8680605 6.8472106 0 0 -2.782776,3.103687 5.5946093,4.8680605 6.8472106 0 0 3.68763,5.785176 v 7.166488 h 0.554488 l 3.705201,-12.328963 0.0078,0.001 c 0.0158,-0.118766 0.07263,-0.218616 0.144177,-0.306958 a 7.0308847,6.5459962 0 0 0 4.744414,1.761133 7.0308847,6.5459962 0 0 0 6.799585,-4.932515 7.0308847,6.5459962 0 0 0 6.924642,5.464782 7.0308847,6.5459962 0 0 0 6.945829,-5.838403 9.7523246,4.3122552 0 0 1 0.09818,-0.01344 7.0308847,6.5459962 0 0 0 6.925159,5.631698 7.0308847,6.5459962 0 0 0 5.420857,-2.460315 9.7523246,4.3122552 0 0 1 0.211874,0.417029 l 0.01447,-0.0021 0.03152,0.104386 c 0.02376,0.05192 0.0399,0.107087 0.04961,0.164848 l 3.708301,12.337748 h 0.560689 V 28.34659 c 2.538984,-2.290336 3.826807,-6.086493 2.175061,-8.562268 -0.631078,-0.934219 -1.517134,-1.597228 -2.532145,-1.974556 A 5.9079133,6.7849448 42.55869 0 0 72.715975,10.79624 5.9079133,6.7849448 42.55869 0 0 65.95153,9.4650553 7.0308847,6.5459962 0 0 0 58.920951,2.9285034 7.0308847,6.5459962 0 0 0 54.576514,4.345988 7.0308847,6.5459962 0 0 0 48.593416,1.2355835 Z" />
  </g>
  <g
     inkscape:groupmode="layer"
     id="g10"
     inkscape:label="Hair4"
     style="display:none;fill:#552200">
    <path
       id="path10"
       style="display:inline;fill:#552200;fill-opacity:1;stroke:none;stroke-width:0.499999;stroke-dasharray:none;stroke-opacity:1"
       d="m 49.750968,3.5341512 a 10.011507,18.037851 69.691605 0 0 -8.915734,1.793689 10.011507,18.037851 69.691605 0 0 -12.349117,8.8304688 10.136681,9.4462409 5.3458493e-7 0 1 -3.6127,0.634587 10.136681,9.4462409 5.3458493e-7 0 1 -2.77244,-0.36587 17.900867,32.14269 69.532374 0 0 0.486275,2.853056 17.900867,32.14269 69.532374 0 0 4.293795,5.443596 c -0.196589,1.163128 -0.304375,2.357312 -0.304375,3.578076 v 9.478491 h 0.554488 l 3.350184,-11.147123 a 17.900867,32.14269 69.532374 0 0 0.376721,0.153996 v -0.01499 a 10.011507,18.037851 69.691605 0 0 8.225338,1.24902 8.6928855,16.806223 72.515996 0 0 8.668721,-1.548226 8.6928855,16.806223 72.515996 0 0 9.128642,-4.935099 10.0021,5.3828185 29.903632 0 0 3.874699,3.088183 10.0021,5.3828185 29.903632 0 0 8.788094,2.110466 l 3.319177,11.04377 h 0.560689 v -9.478491 c 0,-1.342607 -0.129571,-2.653425 -0.366386,-3.925342 A 14.301294,7.0257404 36.489334 0 0 67.590706,10.055717 14.301294,7.0257404 36.489334 0 0 54.304179,3.8902018 10.011507,18.037851 69.691605 0 0 49.750968,3.5341512 Z" />
  </g>
  <g
     inkscape:groupmode="layer"
     id="g20"
     inkscape:label="Hair5"
     style="display:none;fill:#800000">
    <path
       id="rect20"
       style="display:inline;fill:#800000;fill-opacity:1;stroke-width:0.881476"
       d="m 47.639469,4.3635579 c -11.990958,0 -21.644673,9.6775741 -21.644673,21.6984171 v 9.71827 h 0.56689 l 0.01499,-0.05013 V 67.977763 A 33.130649,33.130649 0 0 1 36.951233,66.236267 H 42.01449 V 61.071724 C 33.097945,58.581169 26.591142,50.429745 26.591142,40.697257 V 35.68206 l 2.368847,-7.901327 h 3.724838 l 0.491959,-12.243697 0.541569,12.243697 h 0.8785 l 0.294039,-7.316866 0.323494,7.316866 h 28.664917 l 0.859379,-13.061218 0.944645,13.061218 h 1.018026 l 0.291455,-7.248136 0.320394,7.248136 h 3.623035 l 2.39882,7.999512 h 0.573091 v -9.71827 c 0,-12.020843 -9.653199,-21.6984171 -21.644157,-21.6984171 z M 73.423425,41.046073 C 73.26874,50.622695 66.823401,58.611249 58.014547,61.071724 v 5.164543 h 5.063773 a 33.130649,33.130649 0 0 1 10.345105,1.733744 z" />
  </g>
  <g
     inkscape:groupmode="layer"
     id="g23"
     inkscape:label="Hair6"
     style="display:none;fill:#ff7f2a">
    <path
       id="path23"
       style="display:inline;fill:#ff7f2a;fill-opacity:1;stroke:none;stroke-width:0.499999;stroke-dasharray:none;stroke-opacity:1"
       d="M 48.593416,1.2355835 A 7.0308847,6.5459962 0 0 0 42.895573,3.9734009 7.0308847,6.5459962 0 0 0 37.983728,2.109432 7.0308847,6.5459962 0 0 0 30.994491,8.1142334 7.0308847,6.5459962 0 0 0 30.014705,8.0491211 7.0308847,6.5459962 0 0 0 22.98361,14.594975 a 7.0308847,6.5459962 0 0 0 2.688208,5.129919 5.5946093,4.8680605 6.8472106 0 0 -2.782776,3.103687 5.5946093,4.8680605 6.8472106 0 0 1.482597,4.455025 4.8001528,5.3487415 0 0 0 -2.016414,4.260205 4.8001528,5.3487415 0 0 0 0.246496,1.645378 6.1428953,4.1706482 78.726576 0 1 1.761133,-1.201994 6.1428953,4.1706482 78.726576 0 1 0.544153,-0.05633 6.1428953,4.1706482 78.726576 0 1 1.577681,0.454235 0.63430589,2.1086383 0 0 0 0.09198,0.07958 v 3.31556 h 0.554488 l 3.705201,-12.328963 0.0078,10e-4 c 0.0158,-0.118766 0.07263,-0.218616 0.144177,-0.306958 a 7.0308847,6.5459962 0 0 0 4.744414,1.761133 7.0308847,6.5459962 0 0 0 6.799585,-4.932515 7.0308847,6.5459962 0 0 0 6.924642,5.464782 7.0308847,6.5459962 0 0 0 6.945829,-5.838403 9.7523246,4.3122552 0 0 1 0.09818,-0.01344 7.0308847,6.5459962 0 0 0 6.925159,5.631698 7.0308847,6.5459962 0 0 0 5.420857,-2.460315 9.7523246,4.3122552 0 0 1 0.211874,0.417029 l 0.01447,-0.0021 0.03152,0.104386 c 0.02376,0.05192 0.0399,0.107087 0.04961,0.164848 l 3.708301,12.337748 h 0.558622 v 4.917012 c 0,0.542106 -0.02751,1.077098 -0.06718,1.608688 0.04125,-0.531039 0.06821,-1.066143 0.06821,-1.608171 V 35.78017 h 0.001 v -3.786332 a 0.39429823,2.1600685 0 0 0 0.01757,-0.03927 4.1706481,6.1428952 11.273424 0 1 1.713591,-0.517798 4.1706481,6.1428952 11.273424 0 1 0.543636,0.05633 4.1706481,6.1428952 11.273424 0 1 1.324984,0.659391 4.8001528,5.3487415 0 0 0 0.106453,-0.711067 4.8001528,5.3487415 0 0 0 -2.387968,-4.571814 c 1.607287,-2.232094 2.189324,-5.088051 0.856795,-7.085356 -0.631077,-0.934218 -1.517135,-1.597229 -2.532145,-1.974556 A 5.9079133,6.7849448 42.55869 0 0 72.715975,10.79624 5.9079133,6.7849448 42.55869 0 0 65.95153,9.4650553 7.0308847,6.5459962 0 0 0 58.920951,2.9285034 7.0308847,6.5459962 0 0 0 54.576514,4.345988 7.0308847,6.5459962 0 0 0 48.593416,1.2355835 Z M 26.669173,42.658895 c 0.04179,0.454874 0.09424,0.906338 0.163814,1.352372 a 6.1428953,4.1706482 78.726576 0 1 -0.05271,0.0217 6.1428953,4.1706482 78.726576 0 1 -0.908989,0.02532 4.8001528,5.3487415 0 0 0 -2.400887,4.581632 4.8001528,5.3487415 0 0 0 0.177767,1.422652 4.8001528,5.3487415 0 0 0 -2.715597,4.810559 4.8001528,5.3487415 0 0 0 0.746725,2.861841 4.8001528,5.3487415 0 0 0 -3.099036,4.987293 4.8001528,5.3487415 0 0 0 0.595829,2.552815 4.8001528,5.3487415 0 0 0 -1.507401,3.875733 4.8001528,5.3487415 0 0 0 0.783931,2.865975 33.130649,33.130649 0 0 1 18.482076,-5.780526 h 5.063257 V 61.071724 C 33.688217,58.750663 27.476834,51.510883 26.669173,42.658895 Z M 73.287,42.970504 c -0.924401,8.708712 -7.0778,15.807685 -15.28899,18.10122 v 5.164543 h 5.063774 a 33.130649,33.130649 0 0 1 18.090369,5.506641 4.8001528,5.3487415 0 0 0 0.664042,-2.694409 4.8001528,5.3487415 0 0 0 -1.507402,-3.875733 4.8001528,5.3487415 0 0 0 0.595829,-2.552816 4.8001528,5.3487415 0 0 0 -3.099035,-4.987292 4.8001528,5.3487415 0 0 0 0.746724,-2.861841 4.8001528,5.3487415 0 0 0 -2.715596,-4.810559 4.8001528,5.3487415 0 0 0 0.177767,-1.422652 4.8001528,5.3487415 0 0 0 -2.591057,-4.729427 v -0.06511 a 4.8001528,5.3487415 0 0 0 0.149862,-0.22996 4.1706481,6.1428952 11.273424 0 1 -0.292489,0.02532 4.1706481,6.1428952 11.273424 0 1 -0.04909,-0.02015 c 0.02391,-0.180902 0.0356,-0.365541 0.05529,-0.54777 z" />
  </g>
  <g
     inkscape:groupmode="layer"
     id="layer3"
     inkscape:label="Hair7"
     style="display:none">
    <path
       id="path33"
       style="fill:#c87137;fill-opacity:1;stroke-width:0.621312"
       d="m 47.05966,2.8127482 a 26.5,26.5 0 0 0 -26.500191,26.4996748 26.5,26.5 0 0 0 0.03979,0.557072 h -0.03979 v 33.88527 h 12.42043 V 39.68905 h 0.03979 A 26.5,26.5 0 0 1 32.979899,39.131978 26.5,26.5 0 0 1 59.48009,12.632304 26.5,26.5 0 0 1 68.954964,14.454932 26.5,26.5 0 0 0 47.05966,2.8127482 Z" />
    <path
       id="path33-3"
       style="fill:#c87137;fill-opacity:1;stroke-width:0.621312"
       d="m 52.268345,3.0008849 a 26.5,26.5 0 0 1 26.500191,26.4996751 26.5,26.5 0 0 1 -0.03979,0.557072 h 0.03979 v 33.88527 H 66.348106 V 39.877187 h -0.03979 A 26.5,26.5 0 0 0 66.348106,39.320115 26.5,26.5 0 0 0 39.847915,12.820441 26.5,26.5 0 0 0 30.373041,14.643069 26.5,26.5 0 0 1 52.268345,3.0008849 Z" />
    <path
       id="rect33"
       style="fill:#c87137;fill-opacity:1;stroke-width:0.497286"
       d="m 20.753255,44.318742 v 19.589502 h 21.246249 v -2.83652 C 34.215158,58.897413 28.269609,52.407449 26.884664,44.318742 Z m 48.779968,8.605159 c -2.762239,3.900092 -6.802068,6.826202 -11.533662,8.147823 v 2.83652 h 11.533662 z" />
  </g>
  <g
     inkscape:groupmode="layer"
     id="layer4"
     inkscape:label="Shirt1"
     style="display:none;fill:#c83737">
    <path
       id="rect14-7"
       style="fill:#c83737;fill-opacity:1;stroke:none;stroke-width:0.669228;stroke-opacity:1"
       d="M 36.936565,66.235887 A 33.130649,33.130649 0 0 0 3.8057706,99.366682 v 0.633548 H 96.194447 V 99.366682 A 33.130649,33.130649 0 0 0 63.063652,66.235887 h -5.100464 a 8,5.0645552 0 0 1 -7.963338,4.713408 8,5.0645552 0 0 1 -7.963855,-4.713408 z"
       transform="translate(1.986e-4,-1.37e-4)" />
  </g>
  <g
     inkscape:groupmode="layer"
     id="layer9"
     inkscape:label="Shirt2"
     style="display:none">
    <g
       inkscape:groupmode="layer"
       id="layer5"
       inkscape:label="Shirt2_1"
       style="display:inline">
      <path
         id="path1"
         style="display:inline;fill:#ffdd55;fill-opacity:1;stroke:none;stroke-width:0.499999;stroke-opacity:1"
         d="M 33.963818,56.78103 A 21.870789,11.127243 0 0 0 27.882019,64.461182 21.870789,11.127243 0 0 0 42.00002,74.848145 V 61.076892 C 38.995241,60.236245 36.264759,58.751619 33.963818,56.78103 Z m 31.895211,0.152963 c -2.263023,1.895245 -4.931238,3.322821 -7.858952,4.141349 V 74.765979 A 21.870789,11.127243 0 0 0 71.623535,64.461182 21.870789,11.127243 0 0 0 65.859029,56.933993 Z" />
      <path
         id="rect14-7-3"
         style="display:inline;fill:#ffdd55;fill-opacity:1;stroke:none;stroke-width:0.669228;stroke-opacity:1"
         d="M 36.936764,66.23575 A 33.130649,33.130649 0 0 0 3.8059692,99.366545 v 0.633545 H 96.194646 V 99.366545 A 33.130649,33.130649 0 0 0 63.063851,66.23575 h -5.100464 a 8,5.0645552 0 0 1 -7.963338,4.713408 8,5.0645552 0 0 1 -7.963855,-4.713408 z" />
    </g>
    <g
       inkscape:groupmode="layer"
       id="layer6"
       inkscape:label="Shirt2_2">
      <path
         id="path2"
         style="display:inline;fill:#d4aa00;stroke-width:0.534902"
         d="m 32.119462,71.840689 a 20.584682,10.852618 0 0 0 17.880762,5.48442 20.584682,10.852618 0 0 0 17.880762,-5.48442 22.668668,10.852618 0 0 1 -17.880762,4.189408 22.668668,10.852618 0 0 1 -17.880762,-4.189408 z" />
    </g>
    <g
       inkscape:groupmode="layer"
       id="layer8"
       inkscape:label="Shirt2_3">
      <path
         id="rect3"
         style="fill:#241c1c;stroke-width:0.499999"
         d="m 56.467013,74.137077 v 22.971724 h 1.990059 V 74.137077 Z M 41.543376,74.340682 V 97.31189 h 1.989543 V 74.340682 Z" />
    </g>
  </g>
  <g
     inkscape:groupmode="layer"
     id="g7"
     inkscape:label="Shirt3"
     style="display:none;fill:#ff8080">
    <path
       id="path3"
       style="display:inline;fill:#ff8080;fill-opacity:1;stroke:none;stroke-width:0.669228;stroke-opacity:1"
       d="M 36.936565,66.235887 A 33.130649,33.130649 0 0 0 3.8057706,99.366682 v 0.633548 H 96.194447 V 99.366682 A 33.130649,33.130649 0 0 0 63.063652,66.235887 H 51.530506 l -1.594218,0.54622 -0.0067,-0.0062 -0.01602,0.01447 -1.566313,-0.554488 z"
       transform="translate(1.986e-4,-1.37e-4)" />
    <path
       id="path5"
       style="display:inline;fill:#ffe6d5;fill-opacity:1;stroke:none;stroke-width:1.0899;stroke-opacity:1"
       d="m 42.043429,64.013664 0.0093,0.01964 -4.026627,2.215885 6.849194,7.886857 5.060673,-7.369576 5.165059,7.445541 6.891053,-7.935433 -4.00389,-2.236556 -8.102348,2.742468 -7.818644,-2.768823 z" />
    <path
       id="path4"
       style="display:inline;fill:#d35f5f;fill-opacity:1;stroke:none;stroke-width:1.15461;stroke-opacity:1"
       d="m 42.034644,63.950102 0.0093,0.02222 -0.03359,0.02067 0.04237,-0.02325 -0.0093,-0.01964 z m -3.857129,2.409672 -0.160197,0.09922 6.849194,8.851139 5.060673,-8.270813 5.165059,8.356079 6.891053,-8.905916 -0.149862,-0.09405 -6.732406,7.753015 -4.982641,-7.182508 -0.241329,0.09147 -0.145211,-0.05736 -4.856551,7.072436 z" />
  </g>
  <g
     inkscape:groupmode="layer"
     id="layer10"
     inkscape:label="Shirt4"
     style="display:none;fill:#ff8080">
    <path
       id="rect14-1"
       style="display:inline;fill:#ff8080;fill-opacity:1;stroke:none;stroke-width:0.669228;stroke-opacity:1"
       d="m 42.04323,64.013801 0.0093,0.01964 -4.00234,2.202449 H 36.936565 A 33.130649,33.130649 0 0 0 3.8057706,99.366682 v 0.633548 H 96.194447 V 99.366682 A 33.130649,33.130649 0 0 0 63.063652,66.235887 h -1.144633 l -3.931026,-2.195731 -8.099247,2.741434 -1.541508,-0.545703 h -0.0057 l -6.274553,-2.222086 z m 7.892541,2.752803 0.0088,0.01292 -0.0083,0.0026 -0.0067,-0.0062 z"
       transform="translate(1.986e-4,-1.37e-4)"
       inkscape:label="ing" />
    <path
       id="rect8-0"
       style="display:inline;fill:#d35f5f;fill-opacity:1;stroke:none;stroke-width:1.15461;stroke-opacity:1"
       d="m 38.141341,66.382511 -0.124023,0.07648 6.849194,8.851139 5.060673,-8.270813 5.165059,8.356079 6.891053,-8.905916 -0.113688,-0.07131 -6.76858,7.794356 -5.017781,-7.23315 -0.206189,0.07803 -0.110588,-0.04393 -4.891174,7.123079 z"
       inkscape:label="ing_shadow" />
    <path
       id="path11"
       style="display:inline;fill:#241c1c;fill-opacity:1;stroke-width:0.560944"
       d="m 50.000049,74.000134 a 1.25,1.25 0 0 0 -1.250053,1.250053 1.25,1.25 0 0 0 1.250053,1.250053 1.25,1.25 0 0 0 1.250053,-1.250053 1.25,1.25 0 0 0 -1.250053,-1.250053 z m 0,7.00009 a 1.25,1.25 0 0 0 -1.250053,1.249536 1.25,1.25 0 0 0 1.250053,1.250053 1.25,1.25 0 0 0 1.250053,-1.250053 1.25,1.25 0 0 0 -1.250053,-1.249536 z m 0,6.999573 a 1.25,1.25 0 0 0 -1.250053,1.250052 1.25,1.25 0 0 0 1.250053,1.250053 1.25,1.25 0 0 0 1.250053,-1.250053 1.25,1.25 0 0 0 -1.250053,-1.250052 z m 0,7.000089 a 1.25,1.25 0 0 0 -1.250053,1.250053 1.25,1.25 0 0 0 1.250053,1.250053 1.25,1.25 0 0 0 1.250053,-1.250053 1.25,1.25 0 0 0 -1.250053,-1.250053 z"
       inkscape:label="gombok" />
    <path
       id="path11-5"
       style="display:inline;fill:#d35f5f;fill-opacity:1;stroke-width:0.560944"
       inkscape:label="gombok_shadow"
       d="m 48.773767,75.400049 a 1.25,1.25 0 0 0 -0.02377,0.149861 1.25,1.25 0 0 0 1.250053,1.250053 1.25,1.25 0 0 0 1.250053,-1.250053 1.25,1.25 0 0 0 -0.0093,-0.149344 1.25,1.25 0 0 1 -1.240751,1.099674 1.25,1.25 0 0 1 -1.226282,-1.100191 z m 0,7.000089 a 1.25,1.25 0 0 0 -0.02377,0.149345 1.25,1.25 0 0 0 1.250053,1.250053 1.25,1.25 0 0 0 1.250053,-1.250053 1.25,1.25 0 0 0 -0.01705,-0.106453 1.25,1.25 0 0 1 -1.233,1.056783 1.25,1.25 0 0 1 -1.226282,-1.099675 z m 0,6.999573 a 1.25,1.25 0 0 0 -0.02377,0.149862 1.25,1.25 0 0 0 1.250053,1.250053 1.25,1.25 0 0 0 1.250053,-1.250053 1.25,1.25 0 0 0 -0.0093,-0.149345 1.25,1.25 0 0 1 -1.240751,1.099674 1.25,1.25 0 0 1 -1.226282,-1.100191 z m 0,7.00009 a 1.25,1.25 0 0 0 -0.02377,0.149861 1.25,1.25 0 0 0 1.250053,1.250053 1.25,1.25 0 0 0 1.250053,-1.250053 1.25,1.25 0 0 0 -0.0093,-0.149345 1.25,1.25 0 0 1 -1.240751,1.099675 1.25,1.25 0 0 1 -1.226282,-1.100191 z" />
  </g>
  <g
     inkscape:groupmode="layer"
     id="g12"
     inkscape:label="Shirt5"
     style="display:none;fill:#ff8080">
    <path
       id="path7"
       style="display:inline;fill:#ff8080;fill-opacity:1;stroke:none;stroke-width:0.669228;stroke-opacity:1"
       d="m 42.04323,64.013801 0.0093,0.01964 -4.00234,2.202449 H 36.936565 A 33.130649,33.130649 0 0 0 3.8057706,99.366682 v 0.633548 H 96.194447 V 99.366682 A 33.130649,33.130649 0 0 0 63.063652,66.235887 h -1.144633 l -3.931026,-2.195731 -8.099247,2.741434 -1.541508,-0.545703 h -0.0057 l -6.274553,-2.222086 z m 7.892541,2.752803 0.0088,0.01292 -0.0083,0.0026 -0.0067,-0.0062 z"
       transform="translate(1.986e-4,-1.37e-4)" />
    <path
       id="path8"
       style="display:inline;fill:#d35f5f;fill-opacity:1;stroke:none;stroke-width:1.15461;stroke-opacity:1"
       d="m 38.141341,66.382511 -0.124023,0.07648 6.849194,8.851139 5.060673,-8.270813 5.165059,8.356079 6.891053,-8.905916 -0.113688,-0.07131 -6.76858,7.794356 -5.017781,-7.23315 -0.206189,0.07803 -0.110588,-0.04393 -4.891174,7.123079 z" />
    <path
       id="rect13"
       style="display:inline;fill:#ffe6d5;fill-opacity:1;stroke-width:0.652522"
       d="m 49.928735,67.179362 -4.605403,7.380428 1.107942,1.787488 -1.121895,23.637833 -0.0894,-0.0031 v 0.02222 h 9.56014 l -1.136882,-23.952527 0.89607,-1.435572 z" />
    <path
       id="rect12-4"
       style="display:inline;fill:#e9c6af;stroke-width:0.676054"
       d="m 87.2294,0.85052343 1.38e-4,0.35253817 8.750152,-3.188e-4 1.82e-4,-8.6995321 -0.35396,9.96e-5 -3.2e-4,8.34699391 z"
       transform="matrix(0.52689398,0.84993102,-0.52937421,0.84838844,0,0)" />
  </g>
  <g
     inkscape:groupmode="layer"
     id="g16"
     inkscape:label="Shirt6"
     style="display:none;fill:#c83737">
    <path
       id="path16"
       style="fill:#c83737;fill-opacity:1;stroke:none;stroke-width:0.669228;stroke-opacity:1"
       d="M 36.936565,66.235887 A 33.130649,33.130649 0 0 0 3.8057706,99.366682 v 0.633548 H 96.194447 V 99.366682 A 33.130649,33.130649 0 0 0 63.063652,66.235887 h -5.100464 a 8,5.0645552 0 0 1 -7.963338,4.713408 8,5.0645552 0 0 1 -7.963855,-4.713408 z"
       transform="translate(1.986e-4,-1.37e-4)" />
    <path
       id="rect16"
       style="fill:#f9f9f9;fill-opacity:1;stroke-width:0.499999"
       d="m 44.713907,83.192855 -10.790039,8.013464 5.233272,7.046598 5.48752,-4.075203 v 2.269112 H 44.655 v 3.561544 h 10.546126 v -3.561544 h 0.01395 V 83.25745 h -10.45311 z" />
  </g>
  <g
     inkscape:groupmode="layer"
     id="layer7"
     inkscape:label="Glasses1"
     style="display:none">
    <path
       id="rect21-7"
       style="display:inline;fill:#f9f9f9;fill-opacity:0.588462;stroke-width:0.513518"
       d="m 43.285851,28.814196 -8.380809,6.601596 2.489744,2.828828 8.38143,-6.601597 z m 19.572216,0.292473 -8.380807,6.601596 2.489743,2.828827 8.380808,-6.601597 z m -23.247136,7.698365 -4.37757,3.609752 1.300212,1.546864 4.377571,-3.609751 z m 19.571594,0.292472 -4.376948,3.609753 1.300209,1.546868 4.377569,-3.609752 z" />
    <path
       id="path21"
       style="fill:#241f1c;fill-opacity:1;stroke-width:0.445978"
       d="M 40.831099,27.684098 A 7.9998523,7.9998523 0 0 0 33.26877,33.12666 l -7.683252,-1.702222 -0.08165,0.573092 7.474479,2.246891 a 7.9998523,7.9998523 0 0 0 -0.146761,1.439189 7.9998523,7.9998523 0 0 0 7.999511,8.000545 7.9998523,7.9998523 0 0 0 8.000546,-8.000545 7.9998523,7.9998523 0 0 0 -0.233578,-1.838131 h 0.210323 a 3.7943038,5.5 0 0 1 1.249536,-0.320394 3.7943038,5.5 0 0 1 1.249537,0.320394 h 0.119889 a 7.9998523,7.9998523 0 0 0 -0.288355,2.090829 7.9998523,7.9998523 0 0 0 7.999512,8.000545 7.9998523,7.9998523 0 0 0 8.000545,-8.000545 7.9998523,7.9998523 0 0 0 -0.269751,-2.002979 l 7.580416,-2.27893 -0.08165,-0.573092 -7.872387,1.744596 a 7.9998523,7.9998523 0 0 0 -7.357174,-4.889107 7.9998523,7.9998523 0 0 0 -7.418669,5.057572 4.4841771,6.5 0 0 0 -1.661914,-0.469222 4.4841771,6.5 0 0 0 -1.703772,0.492477 7.9998523,7.9998523 0 0 0 -7.523055,-5.333525 z m 0,1.230416 a 6.7691058,6.7691058 0 0 1 6.769096,6.769096 6.7691058,6.7691058 0 0 1 -6.769096,6.769613 6.7691058,6.7691058 0 0 1 -6.768579,-6.769613 6.7691058,6.7691058 0 0 1 6.768579,-6.769096 z m 18.30741,0.252698 a 6.7691058,6.7691058 0 0 1 6.769096,6.769096 6.7691058,6.7691058 0 0 1 -6.769096,6.769612 6.7691058,6.7691058 0 0 1 -6.769096,-6.769612 6.7691058,6.7691058 0 0 1 0.331246,-2.090829 h 0.06408 a 4.4841771,6.5 0 0 0 -0.04548,-0.04599 6.7691058,6.7691058 0 0 1 6.419246,-4.632275 z" />
  </g>
  <g
     inkscape:groupmode="layer"
     id="g29"
     inkscape:label="Glasses2"
     style="display:none">
    <path
       id="path24"
       style="display:inline;fill:#f9f9f9;fill-opacity:0.588462;stroke-width:0.494074"
       d="m 44.953379,29.567078 -8.545182,5.993613 2.538575,2.568302 8.545816,-5.993612 z m 19.956089,0.265538 -8.545181,5.993612 2.538575,2.568301 8.545182,-5.993612 z m -23.703085,6.989372 -4.463428,3.277307 1.325714,1.404404 4.463428,-3.277307 z m 19.955454,0.265537 -4.462794,3.277307 1.32571,1.404406 4.463427,-3.277306 z" />
    <path
       id="path25"
       style="display:inline;fill:#241f1c;fill-opacity:1;stroke-width:0.456527"
       d="m 34.518306,29.598193 c -1.671079,0 -3.016353,1.345274 -3.016353,3.016354 v 0.436666 l -5.931938,-1.626775 -0.06615,0.573092 5.998083,2.231905 v 4.352189 c 0,1.67108 1.345274,3.016354 3.016353,3.016354 h 10.96729 c 1.671078,0 3.016353,-1.345274 3.016353,-3.016354 v -5.18883 a 3.9759095,5.5 0 0 1 1.273307,-0.304374 3.9759095,5.5 0 0 1 1.309481,0.320393 h 0.0677 v 5.172811 c 0,1.67108 1.345274,3.016354 3.016354,3.016354 h 10.967289 c 1.671078,0 3.016353,-1.345274 3.016353,-3.016354 v -4.55476 l 6.29729,-2.372465 -0.06511,-0.573092 -6.232178,1.730127 v -0.196887 c 0,-1.67108 -1.345275,-3.016354 -3.016353,-3.016354 h -10.96729 c -1.593885,0 -2.888512,1.224845 -3.004985,2.787944 a 4.698802,6.5 0 0 0 -1.388546,-0.297656 4.698802,6.5 0 0 0 -1.286743,0.254764 c -0.136625,-1.542697 -1.423529,-2.745052 -3.002917,-2.745052 z m 0.68523,0.749825 h 9.596313 c 1.462194,0 2.639633,1.177438 2.639633,2.639633 v 5.22087 c 0,1.462193 -1.177439,2.639632 -2.639633,2.639632 h -9.596313 c -1.462194,0 -2.639115,-1.177439 -2.639115,-2.639632 v -4.364592 l 0.07286,-0.632003 -0.07286,-0.02687 v -0.197404 c 0,-1.462195 1.176921,-2.639633 2.639115,-2.639634 z m 19.65048,0 h 9.596314 c 1.462193,0 2.639632,1.177438 2.639632,2.639633 v 5.22087 c 0,1.462193 -1.177439,2.639632 -2.639632,2.639632 h -9.596314 c -1.462193,0 -2.639115,-1.177439 -2.639115,-2.639632 v -5.22087 c 0,-1.462195 1.176922,-2.639633 2.639115,-2.639633 z" />
  </g>
</svg>
