<svg width="270" height="180" viewBox="0 0 270 180" fill="none" xmlns="http://www.w3.org/2000/svg">
<g filter="url(#filter0_d_113_2)">
<path d="M130.033 50.6819H259.614L250.336 136.164H139.311L130.033 50.6819Z" fill="url(#paint0_linear_113_2)"/>
<path d="M130.033 48.6819C129.465 48.6819 128.924 48.9234 128.545 49.3461C128.165 49.7689 127.984 50.333 128.045 50.8977L137.323 136.38C137.433 137.395 138.29 138.164 139.311 138.164H250.336C251.357 138.164 252.214 137.395 252.324 136.38L261.602 50.8977C261.663 50.333 261.481 49.7689 261.102 49.3461C260.723 48.9234 260.182 48.6819 259.614 48.6819H130.033Z" stroke="#006699" stroke-width="4" stroke-linejoin="round"/>
</g>
<path d="M217.808 87.2971H227.848C228.488 87.2971 228.902 87.1771 229.088 86.9371C229.275 86.6971 229.368 86.4171 229.368 86.0971V85.0171C229.368 84.6971 229.275 84.4305 229.088 84.2171C228.902 83.9771 228.488 83.8571 227.848 83.8571H221.048C220.542 83.8571 220.168 83.7505 219.928 83.5371C219.715 83.2971 219.608 82.9238 219.608 82.4171V78.1371C219.608 77.6305 219.715 77.2705 219.928 77.0571C220.168 76.8171 220.542 76.6971 221.048 76.6971H225.248C225.888 76.6971 226.302 76.5771 226.488 76.3371C226.675 76.0971 226.768 75.8171 226.768 75.4971V74.8971C226.768 74.5771 226.675 74.2971 226.488 74.0571C226.302 73.8171 225.888 73.6971 225.248 73.6971H217.808C217.302 73.6971 216.928 73.5905 216.688 73.3771C216.475 73.1371 216.368 72.7638 216.368 72.2571V67.4971C216.368 66.9905 216.475 66.6305 216.688 66.4171C216.928 66.1771 217.302 66.0571 217.808 66.0571H228.968C231.182 66.0571 232.822 66.5771 233.888 67.6171C234.982 68.6305 235.528 70.0171 235.528 71.7771V74.0971C235.528 75.1105 235.355 75.9905 235.008 76.7371C234.662 77.4838 234.048 78.0438 233.168 78.4171C235.062 78.6305 236.368 79.2171 237.088 80.1771C237.835 81.1105 238.208 82.4571 238.208 84.2171V88.2171C238.208 90.2705 237.555 91.8971 236.248 93.0971C234.942 94.2705 233.008 94.8571 230.448 94.8571H217.808C217.302 94.8571 216.928 94.7505 216.688 94.5371C216.475 94.2971 216.368 93.9238 216.368 93.4171V88.7371C216.368 88.2305 216.475 87.8705 216.688 87.6571C216.928 87.4171 217.302 87.2971 217.808 87.2971Z" fill="#006699"/>
<g filter="url(#filter1_d_113_2)">
<path d="M10 30.3044H139.58L130.303 136.342H19.2778L10 30.3044Z" fill="url(#paint1_linear_113_2)"/>
<path d="M10 28.3044C9.43926 28.3044 8.90427 28.5398 8.52544 28.9532C8.14661 29.3666 7.95874 29.9201 8.00761 30.4787L17.2854 136.517C17.3758 137.55 18.2408 138.342 19.2778 138.342H130.303C131.34 138.342 132.205 137.55 132.295 136.517L141.573 30.4787C141.622 29.9201 141.434 29.3666 141.055 28.9532C140.676 28.5398 140.141 28.3044 139.58 28.3044H10Z" stroke="#006699" stroke-width="4" stroke-linejoin="round"/>
</g>
<path d="M55.5489 87.4762H32.7009C32.0929 87.4762 31.6449 87.3482 31.3569 87.0922C31.1009 86.8042 30.9729 86.3562 30.9729 85.7482V77.4922C30.9729 75.6362 31.1489 74.1162 31.5009 72.9322C31.8849 71.7162 32.4129 70.7242 33.0849 69.9562C33.7569 69.1882 34.5569 68.5802 35.4849 68.1322C36.4129 67.6842 37.4209 67.3002 38.5089 66.9802L44.9409 64.9642C45.4529 64.8362 45.7889 64.6442 45.9489 64.3882C46.1409 64.1322 46.2369 63.7482 46.2369 63.2362C46.2369 62.7562 46.1409 62.4362 45.9489 62.2762C45.7569 62.0842 45.4209 61.9882 44.9409 61.9882H34.5249C33.9169 61.9882 33.4689 61.8602 33.1809 61.6042C32.9249 61.3162 32.7969 60.8682 32.7969 60.2602V54.6442C32.7969 54.0362 32.9249 53.6042 33.1809 53.3482C33.4689 53.0602 33.9169 52.9162 34.5249 52.9162H48.6849C51.4049 52.9162 53.4849 53.6042 54.9249 54.9802C56.3969 56.3242 57.1329 58.2922 57.1329 60.8842V65.3962C57.1329 67.7962 56.4609 69.6362 55.1169 70.9162C53.7729 72.1962 51.9489 73.1882 49.6449 73.8922L43.1169 75.9562C42.6369 76.0842 42.3009 76.2282 42.1089 76.3882C41.9489 76.5482 41.8689 76.8842 41.8689 77.3962V78.4042H55.5489C56.1569 78.4042 56.5889 78.5482 56.8449 78.8362C57.1329 79.0922 57.2769 79.5242 57.2769 80.1322V85.7482C57.2769 86.3562 57.1329 86.8042 56.8449 87.0922C56.5889 87.3482 56.1569 87.4762 55.5489 87.4762Z" fill="#006699"/>
<g filter="url(#filter2_d_113_2)">
<path d="M71.0714 8H200.452L191.189 141H80.335L71.0714 8Z" fill="url(#paint2_linear_113_2)"/>
<path d="M71.0714 6C70.5168 6 69.9872 6.23027 69.6089 6.6358C69.2306 7.04134 69.0377 7.58573 69.0762 8.13896L78.3398 141.139C78.4128 142.187 79.2843 143 80.335 143H191.189C192.239 143 193.111 142.187 193.184 141.139L202.448 8.13896C202.486 7.58573 202.293 7.04134 201.915 6.6358C201.537 6.23027 201.007 6 200.452 6H71.0714Z" stroke="#006699" stroke-width="4" stroke-linejoin="round"/>
</g>
<path d="M149.862 75H121.574C120.763 75 120.166 74.8293 119.782 74.488C119.441 74.104 119.27 73.5067 119.27 72.696V64.952C119.27 64.1413 119.441 63.5653 119.782 63.224C120.166 62.84 120.763 62.648 121.574 62.648H128.742V41.272H122.854C122.043 41.272 121.446 41.1013 121.062 40.76C120.721 40.376 120.55 39.7787 120.55 38.968V31.224C120.55 30.4133 120.721 29.8373 121.062 29.496C121.446 29.112 122.043 28.92 122.854 28.92H141.414C142.225 28.92 142.801 29.112 143.142 29.496C143.526 29.8373 143.718 30.4133 143.718 31.224V62.648H149.862C150.673 62.648 151.249 62.84 151.59 63.224C151.974 63.5653 152.166 64.1413 152.166 64.952V72.696C152.166 73.5067 151.974 74.104 151.59 74.488C151.249 74.8293 150.673 75 149.862 75Z" fill="#006699"/>
<g filter="url(#filter3_dd_113_2)">
<mask id="path-10-outside-1_113_2" maskUnits="userSpaceOnUse" x="4.79199" y="108.92" width="262" height="64" fill="black">
<rect fill="white" x="4.79199" y="108.92" width="262" height="64"/>
<path fill-rule="evenodd" clip-rule="evenodd" d="M38.48 159.696V162.696C38.48 163.507 38.288 164.104 37.904 164.488C37.5627 164.829 36.9867 165 36.176 165H25.808C24.9973 165 24.4 164.829 24.016 164.488C23.6747 164.104 23.504 163.507 23.504 162.696V159.696V131.272H14.096C13.2853 131.272 12.688 131.101 12.304 130.76C11.9627 130.376 11.792 129.779 11.792 128.968V125.968V121.224V118.224C11.792 117.413 11.9627 116.837 12.304 116.496C12.688 116.112 13.2853 115.92 14.096 115.92H47.888C48.6987 115.92 49.2747 116.112 49.616 116.496C50 116.837 50.192 117.413 50.192 118.224V121.224V125.968V128.968C50.192 129.779 50 130.376 49.616 130.76C49.2747 131.101 48.6987 131.272 47.888 131.272H38.48V159.696ZM52.224 136.56V139.56V152.928V155.928C52.224 157.4 52.432 158.744 52.848 159.96C53.296 161.144 54.064 162.168 55.152 163.032C56.272 163.864 57.808 164.52 59.76 165C61.712 165.48 64.176 165.72 67.152 165.72C70.128 165.72 72.576 165.48 74.496 165C76.448 164.52 77.968 163.864 79.056 163.032C80.176 162.168 80.944 161.144 81.36 159.96C81.808 158.744 82.032 157.4 82.032 155.928V152.928V139.56V136.56C82.032 135.088 81.808 133.76 81.36 132.576C80.944 131.36 80.176 130.32 79.056 129.456C77.968 128.592 76.448 127.92 74.496 127.44C72.576 126.96 70.128 126.72 67.152 126.72C64.176 126.72 61.712 126.96 59.76 127.44C57.808 127.92 56.272 128.592 55.152 129.456C54.064 130.32 53.296 131.36 52.848 132.576C52.432 133.76 52.224 135.088 52.224 136.56ZM63.84 152.832C63.36 152.384 63.12 151.84 63.12 151.2V141.288C63.12 140.68 63.36 140.168 63.84 139.752C64.32 139.304 65.424 139.08 67.152 139.08C68.88 139.08 69.984 139.304 70.464 139.752C70.944 140.168 71.184 140.68 71.184 141.288V151.2C71.184 151.84 70.944 152.384 70.464 152.832C69.984 153.248 68.88 153.456 67.152 153.456C65.424 153.456 64.32 153.248 63.84 152.832ZM97.1186 160.272V163.272C97.1186 163.88 96.9746 164.328 96.6866 164.616C96.4306 164.872 95.9986 165 95.3906 165H87.9506C87.3426 165 86.8946 164.872 86.6066 164.616C86.3506 164.328 86.2226 163.88 86.2226 163.272V160.272V132.168V129.168C86.2226 128.56 86.3506 128.128 86.6066 127.872C86.8946 127.584 87.3426 127.44 87.9506 127.44H102.639C106.991 127.44 109.967 128.304 111.567 130.032C113.167 131.76 113.967 134.016 113.967 136.8V139.8V142.944V145.944C113.967 148.728 113.167 150.984 111.567 152.712C109.967 154.44 106.991 155.304 102.639 155.304H97.1186V160.272ZM103.592 141.54C103.56 141.023 103.418 140.555 103.167 140.136C102.879 139.656 102.271 139.416 101.343 139.416H97.0226V143.664H101.343C102.271 143.664 102.879 143.424 103.167 142.944C103.418 142.525 103.56 142.057 103.592 141.54ZM140.19 133.037C140.137 132.366 139.95 131.799 139.629 131.336C139.245 130.739 138.499 130.44 137.389 130.44H132.589V135.632H137.389C138.499 135.632 139.245 135.355 139.629 134.8C139.95 134.301 140.137 133.714 140.19 133.037ZM132.589 159.696V162.696C132.589 163.507 132.397 164.104 132.013 164.488C131.672 164.829 131.096 165 130.285 165H120.429C119.619 165 119.021 164.829 118.637 164.488C118.296 164.104 118.125 163.507 118.125 162.696V159.696V121.224V118.224C118.125 117.413 118.296 116.837 118.637 116.496C119.021 116.112 119.619 115.92 120.429 115.92H141.741C146.52 115.92 149.805 116.923 151.597 118.928C153.432 120.891 154.349 123.451 154.349 126.608V129.552C154.349 129.561 154.349 129.571 154.349 129.58C154.349 129.59 154.349 129.599 154.349 129.608V132.552C154.349 134.344 154.072 135.88 153.517 137.16C153.469 137.277 153.417 137.391 153.361 137.502C154.509 137.983 155.5 138.704 156.333 139.664C157.784 141.285 158.509 143.44 158.509 146.128V149.128V159.696V162.696C158.509 163.507 158.317 164.104 157.933 164.488C157.592 164.829 157.016 165 156.205 165H146.285C145.475 165 144.877 164.829 144.493 164.488C144.152 164.104 143.981 163.507 143.981 162.696V159.696V152.904C143.981 151.965 143.789 151.283 143.405 150.856C143.064 150.387 142.445 150.152 141.549 150.152H132.589V159.696ZM178.904 144.816L177.576 140.52C177.448 140.232 177.304 140.024 177.144 139.896C177.016 139.768 176.856 139.704 176.664 139.704H175.464C175.272 139.704 175.096 139.768 174.936 139.896C174.808 140.024 174.68 140.232 174.552 140.52L173.223 144.816H178.904ZM161.304 147.6V150.6V160.272V163.272C161.304 163.88 161.432 164.328 161.688 164.616C161.976 164.872 162.424 165 163.032 165H170.088C170.696 165 171.128 164.872 171.384 164.616C171.672 164.328 171.816 163.88 171.816 163.272V160.272V156.552H180.312V160.272V163.272C180.312 163.88 180.456 164.328 180.744 164.616C181.064 164.872 181.544 165 182.184 165H189.432C190.04 165 190.472 164.872 190.728 164.616C191.016 164.328 191.16 163.88 191.16 163.272V160.272V150.6V147.6C191.16 146.64 191 145.536 190.68 144.288C190.392 143.04 189.928 141.584 189.288 139.92L185.112 129.024C184.92 128.48 184.616 128.08 184.2 127.824C183.816 127.568 183.32 127.44 182.712 127.44H169.8C169.16 127.44 168.632 127.568 168.216 127.824C167.832 128.08 167.544 128.48 167.352 129.024L163.176 139.92C162.536 141.584 162.056 143.04 161.736 144.288C161.448 145.536 161.304 146.64 161.304 147.6ZM205.822 160.272V163.272C205.822 163.88 205.678 164.328 205.39 164.616C205.134 164.872 204.702 165 204.094 165H196.894C196.286 165 195.838 164.872 195.55 164.616C195.294 164.328 195.166 163.88 195.166 163.272V160.272V132.168V129.168C195.166 128.56 195.294 128.128 195.55 127.872C195.838 127.584 196.286 127.44 196.894 127.44H201.886C202.494 127.44 203.006 127.536 203.422 127.728C203.87 127.92 204.302 128.256 204.718 128.736L214.03 139.392V132.168V129.168C214.03 128.56 214.158 128.128 214.414 127.872C214.702 127.584 215.15 127.44 215.758 127.44H222.958C223.566 127.44 223.998 127.584 224.254 127.872C224.542 128.128 224.686 128.56 224.686 129.168V132.168V160.272V163.272C224.686 163.88 224.542 164.328 224.254 164.616C223.998 164.872 223.566 165 222.958 165H215.758C215.15 165 214.702 164.872 214.414 164.616C214.158 164.328 214.03 163.88 214.03 163.272V160.272V157.368L205.822 147.432V160.272ZM240.283 160.272V163.272C240.283 163.88 240.139 164.328 239.851 164.616C239.595 164.872 239.163 165 238.555 165H231.115C230.507 165 230.059 164.872 229.771 164.616C229.515 164.328 229.387 163.88 229.387 163.272V160.272V132.168V129.168C229.387 128.56 229.515 128.128 229.771 127.872C230.059 127.584 230.507 127.44 231.115 127.44H238.555C239.163 127.44 239.595 127.584 239.851 127.872C240.139 128.128 240.283 128.56 240.283 129.168V132.168V140.208H242.203L247.147 129.024C247.371 128.448 247.675 128.048 248.059 127.824C248.443 127.568 248.939 127.44 249.547 127.44H256.939C257.483 127.44 257.851 127.584 258.043 127.872C258.235 128.128 258.219 128.512 257.995 129.024L257.36 130.475C257.678 130.533 257.906 130.666 258.043 130.872C258.235 131.128 258.219 131.512 257.995 132.024L254.34 140.374C255.561 140.647 256.571 141.232 257.371 142.128C258.459 143.28 259.003 144.816 259.003 146.736V149.736V160.272V163.272C259.003 163.88 258.859 164.328 258.571 164.616C258.315 164.872 257.883 165 257.275 165H249.883C249.275 165 248.827 164.872 248.539 164.616C248.283 164.328 248.155 163.88 248.155 163.272V160.272V153.912C248.155 153.4 248.027 153 247.771 152.712C247.515 152.424 247.131 152.28 246.619 152.28H240.283V160.272Z"/>
</mask>
<path fill-rule="evenodd" clip-rule="evenodd" d="M38.48 159.696V162.696C38.48 163.507 38.288 164.104 37.904 164.488C37.5627 164.829 36.9867 165 36.176 165H25.808C24.9973 165 24.4 164.829 24.016 164.488C23.6747 164.104 23.504 163.507 23.504 162.696V159.696V131.272H14.096C13.2853 131.272 12.688 131.101 12.304 130.76C11.9627 130.376 11.792 129.779 11.792 128.968V125.968V121.224V118.224C11.792 117.413 11.9627 116.837 12.304 116.496C12.688 116.112 13.2853 115.92 14.096 115.92H47.888C48.6987 115.92 49.2747 116.112 49.616 116.496C50 116.837 50.192 117.413 50.192 118.224V121.224V125.968V128.968C50.192 129.779 50 130.376 49.616 130.76C49.2747 131.101 48.6987 131.272 47.888 131.272H38.48V159.696ZM52.224 136.56V139.56V152.928V155.928C52.224 157.4 52.432 158.744 52.848 159.96C53.296 161.144 54.064 162.168 55.152 163.032C56.272 163.864 57.808 164.52 59.76 165C61.712 165.48 64.176 165.72 67.152 165.72C70.128 165.72 72.576 165.48 74.496 165C76.448 164.52 77.968 163.864 79.056 163.032C80.176 162.168 80.944 161.144 81.36 159.96C81.808 158.744 82.032 157.4 82.032 155.928V152.928V139.56V136.56C82.032 135.088 81.808 133.76 81.36 132.576C80.944 131.36 80.176 130.32 79.056 129.456C77.968 128.592 76.448 127.92 74.496 127.44C72.576 126.96 70.128 126.72 67.152 126.72C64.176 126.72 61.712 126.96 59.76 127.44C57.808 127.92 56.272 128.592 55.152 129.456C54.064 130.32 53.296 131.36 52.848 132.576C52.432 133.76 52.224 135.088 52.224 136.56ZM63.84 152.832C63.36 152.384 63.12 151.84 63.12 151.2V141.288C63.12 140.68 63.36 140.168 63.84 139.752C64.32 139.304 65.424 139.08 67.152 139.08C68.88 139.08 69.984 139.304 70.464 139.752C70.944 140.168 71.184 140.68 71.184 141.288V151.2C71.184 151.84 70.944 152.384 70.464 152.832C69.984 153.248 68.88 153.456 67.152 153.456C65.424 153.456 64.32 153.248 63.84 152.832ZM97.1186 160.272V163.272C97.1186 163.88 96.9746 164.328 96.6866 164.616C96.4306 164.872 95.9986 165 95.3906 165H87.9506C87.3426 165 86.8946 164.872 86.6066 164.616C86.3506 164.328 86.2226 163.88 86.2226 163.272V160.272V132.168V129.168C86.2226 128.56 86.3506 128.128 86.6066 127.872C86.8946 127.584 87.3426 127.44 87.9506 127.44H102.639C106.991 127.44 109.967 128.304 111.567 130.032C113.167 131.76 113.967 134.016 113.967 136.8V139.8V142.944V145.944C113.967 148.728 113.167 150.984 111.567 152.712C109.967 154.44 106.991 155.304 102.639 155.304H97.1186V160.272ZM103.592 141.54C103.56 141.023 103.418 140.555 103.167 140.136C102.879 139.656 102.271 139.416 101.343 139.416H97.0226V143.664H101.343C102.271 143.664 102.879 143.424 103.167 142.944C103.418 142.525 103.56 142.057 103.592 141.54ZM140.19 133.037C140.137 132.366 139.95 131.799 139.629 131.336C139.245 130.739 138.499 130.44 137.389 130.44H132.589V135.632H137.389C138.499 135.632 139.245 135.355 139.629 134.8C139.95 134.301 140.137 133.714 140.19 133.037ZM132.589 159.696V162.696C132.589 163.507 132.397 164.104 132.013 164.488C131.672 164.829 131.096 165 130.285 165H120.429C119.619 165 119.021 164.829 118.637 164.488C118.296 164.104 118.125 163.507 118.125 162.696V159.696V121.224V118.224C118.125 117.413 118.296 116.837 118.637 116.496C119.021 116.112 119.619 115.92 120.429 115.92H141.741C146.52 115.92 149.805 116.923 151.597 118.928C153.432 120.891 154.349 123.451 154.349 126.608V129.552C154.349 129.561 154.349 129.571 154.349 129.58C154.349 129.59 154.349 129.599 154.349 129.608V132.552C154.349 134.344 154.072 135.88 153.517 137.16C153.469 137.277 153.417 137.391 153.361 137.502C154.509 137.983 155.5 138.704 156.333 139.664C157.784 141.285 158.509 143.44 158.509 146.128V149.128V159.696V162.696C158.509 163.507 158.317 164.104 157.933 164.488C157.592 164.829 157.016 165 156.205 165H146.285C145.475 165 144.877 164.829 144.493 164.488C144.152 164.104 143.981 163.507 143.981 162.696V159.696V152.904C143.981 151.965 143.789 151.283 143.405 150.856C143.064 150.387 142.445 150.152 141.549 150.152H132.589V159.696ZM178.904 144.816L177.576 140.52C177.448 140.232 177.304 140.024 177.144 139.896C177.016 139.768 176.856 139.704 176.664 139.704H175.464C175.272 139.704 175.096 139.768 174.936 139.896C174.808 140.024 174.68 140.232 174.552 140.52L173.223 144.816H178.904ZM161.304 147.6V150.6V160.272V163.272C161.304 163.88 161.432 164.328 161.688 164.616C161.976 164.872 162.424 165 163.032 165H170.088C170.696 165 171.128 164.872 171.384 164.616C171.672 164.328 171.816 163.88 171.816 163.272V160.272V156.552H180.312V160.272V163.272C180.312 163.88 180.456 164.328 180.744 164.616C181.064 164.872 181.544 165 182.184 165H189.432C190.04 165 190.472 164.872 190.728 164.616C191.016 164.328 191.16 163.88 191.16 163.272V160.272V150.6V147.6C191.16 146.64 191 145.536 190.68 144.288C190.392 143.04 189.928 141.584 189.288 139.92L185.112 129.024C184.92 128.48 184.616 128.08 184.2 127.824C183.816 127.568 183.32 127.44 182.712 127.44H169.8C169.16 127.44 168.632 127.568 168.216 127.824C167.832 128.08 167.544 128.48 167.352 129.024L163.176 139.92C162.536 141.584 162.056 143.04 161.736 144.288C161.448 145.536 161.304 146.64 161.304 147.6ZM205.822 160.272V163.272C205.822 163.88 205.678 164.328 205.39 164.616C205.134 164.872 204.702 165 204.094 165H196.894C196.286 165 195.838 164.872 195.55 164.616C195.294 164.328 195.166 163.88 195.166 163.272V160.272V132.168V129.168C195.166 128.56 195.294 128.128 195.55 127.872C195.838 127.584 196.286 127.44 196.894 127.44H201.886C202.494 127.44 203.006 127.536 203.422 127.728C203.87 127.92 204.302 128.256 204.718 128.736L214.03 139.392V132.168V129.168C214.03 128.56 214.158 128.128 214.414 127.872C214.702 127.584 215.15 127.44 215.758 127.44H222.958C223.566 127.44 223.998 127.584 224.254 127.872C224.542 128.128 224.686 128.56 224.686 129.168V132.168V160.272V163.272C224.686 163.88 224.542 164.328 224.254 164.616C223.998 164.872 223.566 165 222.958 165H215.758C215.15 165 214.702 164.872 214.414 164.616C214.158 164.328 214.03 163.88 214.03 163.272V160.272V157.368L205.822 147.432V160.272ZM240.283 160.272V163.272C240.283 163.88 240.139 164.328 239.851 164.616C239.595 164.872 239.163 165 238.555 165H231.115C230.507 165 230.059 164.872 229.771 164.616C229.515 164.328 229.387 163.88 229.387 163.272V160.272V132.168V129.168C229.387 128.56 229.515 128.128 229.771 127.872C230.059 127.584 230.507 127.44 231.115 127.44H238.555C239.163 127.44 239.595 127.584 239.851 127.872C240.139 128.128 240.283 128.56 240.283 129.168V132.168V140.208H242.203L247.147 129.024C247.371 128.448 247.675 128.048 248.059 127.824C248.443 127.568 248.939 127.44 249.547 127.44H256.939C257.483 127.44 257.851 127.584 258.043 127.872C258.235 128.128 258.219 128.512 257.995 129.024L257.36 130.475C257.678 130.533 257.906 130.666 258.043 130.872C258.235 131.128 258.219 131.512 257.995 132.024L254.34 140.374C255.561 140.647 256.571 141.232 257.371 142.128C258.459 143.28 259.003 144.816 259.003 146.736V149.736V160.272V163.272C259.003 163.88 258.859 164.328 258.571 164.616C258.315 164.872 257.883 165 257.275 165H249.883C249.275 165 248.827 164.872 248.539 164.616C248.283 164.328 248.155 163.88 248.155 163.272V160.272V153.912C248.155 153.4 248.027 153 247.771 152.712C247.515 152.424 247.131 152.28 246.619 152.28H240.283V160.272Z" fill="white"/>
<path d="M37.904 164.488L32.9543 159.538L32.9542 159.538L37.904 164.488ZM24.016 164.488L18.7841 169.139L19.0577 169.446L19.3654 169.72L24.016 164.488ZM23.504 131.272H30.504V124.272H23.504V131.272ZM12.304 130.76L7.07213 135.411L7.34569 135.718L7.65344 135.992L12.304 130.76ZM12.304 116.496L7.35424 111.546L7.35424 111.546L12.304 116.496ZM49.616 116.496L44.3841 121.147L44.6577 121.454L44.9654 121.728L49.616 116.496ZM49.616 130.76L54.5657 135.71L54.5657 135.71L49.616 130.76ZM38.48 131.272V124.272H31.48V131.272H38.48ZM52.848 159.96L46.2248 162.226L46.2612 162.332L46.301 162.437L52.848 159.96ZM55.152 163.032L50.7988 168.514L50.8872 168.584L50.9777 168.651L55.152 163.032ZM74.496 165L72.8245 158.202L72.8114 158.206L72.7982 158.209L74.496 165ZM79.056 163.032L83.3081 168.593L83.3199 168.584L83.3316 168.574L79.056 163.032ZM81.36 159.96L74.7916 157.54L74.7733 157.59L74.7558 157.64L81.36 159.96ZM81.36 132.576L74.7368 134.842L74.7732 134.948L74.813 135.053L81.36 132.576ZM79.056 129.456L74.7028 134.938L74.7414 134.968L74.7804 134.998L79.056 129.456ZM74.496 127.44L72.7982 134.231L72.8114 134.234L72.8245 134.238L74.496 127.44ZM55.152 129.456L50.8764 123.914L50.8374 123.944L50.7988 123.974L55.152 129.456ZM52.848 132.576L46.2796 130.156L46.2613 130.206L46.2438 130.256L52.848 132.576ZM63.84 152.832L59.0638 157.949L59.158 158.037L59.2555 158.122L63.84 152.832ZM63.84 139.752L68.4245 145.042L68.522 144.957L68.6162 144.869L63.84 139.752ZM70.464 139.752L65.6878 144.869L65.782 144.957L65.8795 145.042L70.464 139.752ZM70.464 152.832L75.0485 158.122L75.146 158.037L75.2402 157.949L70.464 152.832ZM96.6866 164.616L101.636 169.566L101.636 169.566L96.6866 164.616ZM86.6066 164.616L81.3747 169.266L81.6483 169.574L81.9561 169.848L86.6066 164.616ZM86.6066 127.872L81.6569 122.922L81.6568 122.922L86.6066 127.872ZM111.567 130.032L106.43 134.788L106.43 134.788L111.567 130.032ZM111.567 152.712L106.43 147.956L106.43 147.956L111.567 152.712ZM97.1186 155.304V148.304H90.1186V155.304H97.1186ZM103.592 141.54L110.578 141.971L110.605 141.54L110.578 141.109L103.592 141.54ZM103.167 140.136L109.169 136.535L109.169 136.535L103.167 140.136ZM97.0226 139.416V132.416H90.0226V139.416H97.0226ZM97.0226 143.664H90.0226V150.664H97.0226V143.664ZM103.167 142.944L109.169 146.545L109.169 146.545L103.167 142.944ZM140.19 133.037L147.168 133.583L147.211 133.034L147.168 132.486L140.19 133.037ZM139.629 131.336L133.741 135.121L133.806 135.222L133.874 135.32L139.629 131.336ZM132.589 130.44V123.44H125.589V130.44H132.589ZM132.589 135.632H125.589V142.632H132.589V135.632ZM139.629 134.8L145.385 138.784L145.453 138.686L145.518 138.585L139.629 134.8ZM132.013 164.488L127.064 159.538L127.064 159.538L132.013 164.488ZM118.637 164.488L113.405 169.139L113.679 169.446L113.987 169.72L118.637 164.488ZM118.637 116.496L123.587 121.446L123.587 121.446L118.637 116.496ZM151.597 118.928L146.378 123.592L146.43 123.651L146.484 123.708L151.597 118.928ZM153.517 137.16L147.094 134.377L147.071 134.43L147.049 134.483L153.517 137.16ZM153.361 137.502L147.105 134.362L143.743 141.059L150.654 143.957L153.361 137.502ZM156.333 139.664L151.048 144.254L151.082 144.293L151.117 144.332L156.333 139.664ZM157.933 164.488L152.984 159.538L152.984 159.538L157.933 164.488ZM144.493 164.488L139.261 169.138L139.535 169.446L139.843 169.72L144.493 164.488ZM143.405 150.856L137.744 154.973L137.959 155.268L138.202 155.539L143.405 150.856ZM132.589 150.152V143.152H125.589V150.152H132.589ZM178.904 144.816V151.816H188.396L185.592 142.748L178.904 144.816ZM177.576 140.52L184.263 138.452L184.141 138.056L183.972 137.677L177.576 140.52ZM177.144 139.896L172.194 144.846L172.468 145.12L172.771 145.362L177.144 139.896ZM174.936 139.896L170.563 134.43L170.26 134.672L169.986 134.946L174.936 139.896ZM174.552 140.52L168.155 137.677L167.987 138.056L167.864 138.452L174.552 140.52ZM173.223 144.816L166.536 142.748L163.732 151.816H173.223V144.816ZM161.688 164.616L156.456 169.267L156.73 169.574L157.037 169.848L161.688 164.616ZM171.384 164.616L176.334 169.566L176.334 169.566L171.384 164.616ZM171.816 156.552V149.552H164.816V156.552H171.816ZM180.312 156.552H187.312V149.552H180.312V156.552ZM180.744 164.616L175.794 169.566L176.068 169.84L176.371 170.082L180.744 164.616ZM190.728 164.616L185.778 159.666L185.778 159.666L190.728 164.616ZM190.68 144.288L183.859 145.862L183.878 145.945L183.899 146.027L190.68 144.288ZM189.288 139.92L182.751 142.425L182.754 142.433L189.288 139.92ZM185.112 129.024L178.511 131.354L178.542 131.442L178.575 131.529L185.112 129.024ZM184.2 127.824L180.317 133.648L180.423 133.719L180.531 133.786L184.2 127.824ZM168.216 127.824L164.547 121.862L164.439 121.929L164.333 122L168.216 127.824ZM167.352 129.024L173.888 131.529L173.922 131.442L173.953 131.354L167.352 129.024ZM163.176 139.92L169.709 142.433L169.712 142.425L163.176 139.92ZM161.736 144.288L154.955 142.549L154.934 142.631L154.915 142.714L161.736 144.288ZM205.39 164.616L210.34 169.566L210.34 169.566L205.39 164.616ZM195.55 164.616L190.319 169.267L190.592 169.574L190.9 169.848L195.55 164.616ZM195.55 127.872L200.5 132.822L200.5 132.822L195.55 127.872ZM203.422 127.728L200.489 134.084L200.576 134.124L200.665 134.162L203.422 127.728ZM204.718 128.736L199.429 133.321L199.438 133.331L199.447 133.342L204.718 128.736ZM214.03 139.392L208.759 143.998L221.03 158.04V139.392H214.03ZM214.414 127.872L219.364 132.822L219.364 132.822L214.414 127.872ZM224.254 127.872L219.022 132.523L219.296 132.83L219.604 133.104L224.254 127.872ZM224.254 164.616L229.204 169.566L229.204 169.566L224.254 164.616ZM214.414 164.616L209.183 169.267L209.456 169.574L209.764 169.848L214.414 164.616ZM214.03 157.368H221.03V154.851L219.427 152.91L214.03 157.368ZM205.822 147.432L211.219 142.974L198.822 127.967V147.432H205.822ZM239.851 164.616L234.901 159.666L234.901 159.666L239.851 164.616ZM229.771 164.616L224.539 169.267L224.813 169.574L225.12 169.848L229.771 164.616ZM229.771 127.872L234.721 132.822L234.721 132.822L229.771 127.872ZM239.851 127.872L234.619 132.523L234.893 132.83L235.201 133.104L239.851 127.872ZM240.283 140.208H233.283V147.208H240.283V140.208ZM242.203 140.208V147.208H246.762L248.605 143.038L242.203 140.208ZM247.147 129.024L253.549 131.854L253.613 131.709L253.671 131.561L247.147 129.024ZM248.059 127.824L251.586 133.87L251.767 133.765L251.942 133.648L248.059 127.824ZM258.043 127.872L252.219 131.755L252.326 131.917L252.443 132.072L258.043 127.872ZM257.995 129.024L264.407 131.831L264.408 131.83L257.995 129.024ZM257.36 130.475L250.947 127.668L247.405 135.759L256.092 137.359L257.36 130.475ZM258.043 130.872L252.219 134.755L252.326 134.917L252.443 135.072L258.043 130.872ZM257.995 132.024L264.407 134.831L264.408 134.83L257.995 132.024ZM254.34 140.374L247.927 137.567L244.518 145.354L252.814 147.206L254.34 140.374ZM257.371 142.128L252.147 146.787L252.213 146.862L252.282 146.934L257.371 142.128ZM258.571 164.616L253.621 159.666L253.621 159.666L258.571 164.616ZM248.539 164.616L243.307 169.266L243.581 169.574L243.889 169.848L248.539 164.616ZM247.771 152.712L253.003 148.062L253.003 148.061L247.771 152.712ZM240.283 152.28V145.28H233.283V152.28H240.283ZM31.48 159.696V162.696H45.48V159.696H31.48ZM31.48 162.696C31.48 162.556 31.5 160.992 32.9543 159.538L42.8537 169.438C45.0759 167.216 45.48 164.457 45.48 162.696H31.48ZM32.9542 159.538C33.7864 158.706 34.6662 158.327 35.2274 158.16C35.7654 158.001 36.1265 158 36.176 158V172C37.6545 172 40.5478 171.744 42.8538 169.438L32.9542 159.538ZM36.176 158H25.808V172H36.176V158ZM25.808 158C25.8669 158 26.1915 158.003 26.675 158.141C27.1784 158.285 27.9263 158.598 28.6666 159.256L19.3654 169.72C21.5936 171.7 24.2257 172 25.808 172V158ZM29.2479 159.837C29.9059 160.578 30.2188 161.326 30.3627 161.829C30.5008 162.312 30.504 162.637 30.504 162.696H16.504C16.504 164.278 16.8035 166.91 18.7841 169.139L29.2479 159.837ZM30.504 162.696V159.696H16.504V162.696H30.504ZM30.504 159.696V131.272H16.504V159.696H30.504ZM23.504 124.272H14.096V138.272H23.504V124.272ZM14.096 124.272C14.1549 124.272 14.4795 124.275 14.963 124.413C15.4664 124.557 16.2143 124.87 16.9545 125.528L7.65344 135.992C9.88165 137.972 12.5137 138.272 14.096 138.272V124.272ZM17.5359 126.109C18.1939 126.85 18.5068 127.598 18.6507 128.101C18.7888 128.584 18.792 128.909 18.792 128.968H4.79199C4.79199 130.55 5.0915 133.182 7.07213 135.411L17.5359 126.109ZM18.792 128.968V125.968H4.79199V128.968H18.792ZM18.792 125.968V121.224H4.79199V125.968H18.792ZM18.792 121.224V118.224H4.79199V121.224H18.792ZM18.792 118.224C18.792 118.273 18.791 118.635 18.6316 119.173C18.4653 119.734 18.0859 120.614 17.2537 121.446L7.35424 111.546C5.04834 113.852 4.79199 116.745 4.79199 118.224H18.792ZM17.2537 121.446C15.7995 122.9 14.236 122.92 14.096 122.92V108.92C12.3346 108.92 9.57645 109.324 7.35424 111.546L17.2537 121.446ZM14.096 122.92H47.888V108.92H14.096V122.92ZM47.888 122.92C47.8385 122.92 45.9759 122.937 44.3841 121.147L54.8478 111.845C52.5735 109.287 49.5588 108.92 47.888 108.92V122.92ZM44.9654 121.728C43.1748 120.136 43.192 118.274 43.192 118.224H57.192C57.192 116.553 56.8252 113.539 54.2666 111.264L44.9654 121.728ZM43.192 118.224V121.224H57.192V118.224H43.192ZM43.192 121.224V125.968H57.192V121.224H43.192ZM43.192 125.968V128.968H57.192V125.968H43.192ZM43.192 128.968C43.192 128.828 43.212 127.264 44.6662 125.81L54.5657 135.71C56.7879 133.488 57.192 130.729 57.192 128.968H43.192ZM44.6663 125.81C45.4984 124.978 46.3782 124.599 46.9394 124.432C47.4774 124.273 47.8385 124.272 47.888 124.272V138.272C49.3666 138.272 52.2598 138.016 54.5657 135.71L44.6663 125.81ZM47.888 124.272H38.48V138.272H47.888V124.272ZM31.48 131.272V159.696H45.48V131.272H31.48ZM59.224 139.56V136.56H45.224V139.56H59.224ZM59.224 152.928V139.56H45.224V152.928H59.224ZM59.224 155.928V152.928H45.224V155.928H59.224ZM59.4711 157.694C59.338 157.305 59.224 156.739 59.224 155.928H45.224C45.224 158.061 45.526 160.183 46.2248 162.226L59.4711 157.694ZM59.5052 157.55C59.3902 157.459 59.3557 157.41 59.36 157.416C59.3612 157.418 59.3674 157.426 59.3756 157.441C59.3839 157.456 59.3905 157.471 59.395 157.483L46.301 162.437C47.2387 164.916 48.8213 166.943 50.7988 168.514L59.5052 157.55ZM61.4315 158.202C60.0172 157.855 59.4458 157.502 59.3263 157.413L50.9777 168.651C53.0982 170.226 55.5988 171.185 58.0885 171.798L61.4315 158.202ZM67.152 158.72C64.4974 158.72 62.6431 158.5 61.4315 158.202L58.0885 171.798C60.7809 172.46 63.8546 172.72 67.152 172.72V158.72ZM72.7982 158.209C71.6367 158.499 69.8119 158.72 67.152 158.72V172.72C70.4441 172.72 73.5153 172.461 76.1937 171.791L72.7982 158.209ZM74.8038 157.471C74.8039 157.471 74.7953 157.478 74.7765 157.49C74.7577 157.503 74.7293 157.521 74.69 157.543C74.6107 157.588 74.4921 157.649 74.3262 157.721C73.9887 157.867 73.5003 158.036 72.8245 158.202L76.1675 171.798C78.6549 171.186 81.1832 170.217 83.3081 168.593L74.8038 157.471ZM74.7558 157.64C74.771 157.596 74.7904 157.552 74.813 157.51C74.8355 157.468 74.8567 157.436 74.872 157.416C74.9043 157.373 74.8923 157.403 74.7804 157.49L83.3316 168.574C85.3824 166.992 87.0443 164.899 87.9642 162.28L74.7558 157.64ZM75.032 155.928C75.032 156.685 74.9181 157.197 74.7916 157.54L87.9284 162.38C88.6979 160.291 89.032 158.115 89.032 155.928H75.032ZM75.032 152.928V155.928H89.032V152.928H75.032ZM75.032 139.56V152.928H89.032V139.56H75.032ZM75.032 136.56V139.56H89.032V136.56H75.032ZM74.813 135.053C74.917 135.328 75.032 135.799 75.032 136.56H89.032C89.032 134.377 88.699 132.192 87.907 130.099L74.813 135.053ZM74.7804 134.998C74.8745 135.071 74.8768 135.091 74.841 135.042C74.8243 135.02 74.8039 134.988 74.7838 134.95C74.7636 134.911 74.7479 134.874 74.7368 134.842L87.9831 130.31C87.0785 127.666 85.4247 125.528 83.3316 123.914L74.7804 134.998ZM72.8245 134.238C73.4827 134.399 73.9515 134.566 74.2695 134.706C74.5878 134.847 74.7057 134.94 74.7028 134.938L83.4092 123.974C81.2614 122.269 78.6942 121.264 76.1675 120.642L72.8245 134.238ZM67.152 133.72C69.8119 133.72 71.6367 133.941 72.7982 134.231L76.1937 120.649C73.5153 119.979 70.4441 119.72 67.152 119.72V133.72ZM61.4315 134.238C62.6431 133.94 64.4974 133.72 67.152 133.72V119.72C63.8546 119.72 60.7809 119.98 58.0885 120.642L61.4315 134.238ZM59.4276 134.998C59.5234 134.925 60.0561 134.576 61.4315 134.238L58.0885 120.642C55.5598 121.264 53.0206 122.259 50.8764 123.914L59.4276 134.998ZM59.4164 134.996C59.4156 134.998 59.4122 135.007 59.4059 135.018C59.3995 135.03 59.3938 135.039 59.391 135.042C59.3884 135.046 59.3927 135.039 59.4085 135.023C59.4245 135.007 59.455 134.978 59.5052 134.938L50.7988 123.974C48.781 125.577 47.2034 127.648 46.2796 130.156L59.4164 134.996ZM59.224 136.56C59.224 135.745 59.3391 135.218 59.4522 134.896L46.2438 130.256C45.5249 132.302 45.224 134.431 45.224 136.56H59.224ZM56.12 151.2C56.12 153.836 57.207 156.216 59.0638 157.949L68.6162 147.715C68.9959 148.069 69.4042 148.582 69.7044 149.263C70.0064 149.947 70.12 150.622 70.12 151.2H56.12ZM56.12 141.288V151.2H70.12V141.288H56.12ZM59.2555 134.462C57.3196 136.14 56.12 138.549 56.12 141.288H70.12C70.12 141.932 69.9862 142.677 69.6382 143.419C69.2939 144.154 68.8334 144.687 68.4245 145.042L59.2555 134.462ZM67.152 132.08C66.0399 132.08 64.8202 132.148 63.6361 132.388C62.6153 132.595 60.7064 133.101 59.0638 134.635L68.6162 144.869C67.9849 145.459 67.3851 145.76 67.0508 145.902C66.7078 146.048 66.4715 146.098 66.4199 146.108C66.3398 146.124 66.5361 146.08 67.152 146.08V132.08ZM75.2402 134.635C73.5975 133.101 71.6887 132.595 70.6679 132.388C69.4838 132.148 68.2641 132.08 67.152 132.08V146.08C67.7679 146.08 67.9642 146.124 67.8841 146.108C67.8325 146.098 67.5962 146.048 67.2531 145.902C66.9189 145.76 66.3191 145.459 65.6878 144.869L75.2402 134.635ZM78.184 141.288C78.184 138.549 76.9844 136.14 75.0485 134.462L65.8795 145.042C65.4705 144.687 65.0101 144.154 64.6658 143.419C64.3177 142.677 64.184 141.932 64.184 141.288H78.184ZM78.184 151.2V141.288H64.184V151.2H78.184ZM75.2402 157.949C77.0971 156.216 78.184 153.836 78.184 151.2H64.184C64.184 150.622 64.2975 149.947 64.5996 149.263C64.8998 148.582 65.3081 148.069 65.6878 147.715L75.2402 157.949ZM67.152 160.456C68.2456 160.456 69.4297 160.394 70.572 160.179C71.5321 159.998 73.4014 159.549 75.0485 158.122L65.8795 147.542C66.5233 146.984 67.1169 146.712 67.4213 146.592C67.7402 146.467 67.9508 146.427 67.98 146.421C68.0183 146.414 67.7864 146.456 67.152 146.456V160.456ZM59.2555 158.122C60.9025 159.549 62.7718 159.998 63.732 160.179C64.8743 160.394 66.0584 160.456 67.152 160.456V146.456C66.5176 146.456 66.2857 146.414 66.324 146.421C66.3532 146.427 66.5638 146.467 66.8827 146.592C67.1871 146.712 67.7807 146.984 68.4245 147.542L59.2555 158.122ZM90.1186 160.272V163.272H104.119V160.272H90.1186ZM90.1186 163.272C90.1186 162.929 90.1867 161.216 91.7369 159.666L101.636 169.566C103.763 167.44 104.119 164.831 104.119 163.272H90.1186ZM91.7369 159.666C92.6118 158.791 93.5488 158.38 94.182 158.192C94.7921 158.012 95.2398 158 95.3906 158V172C96.6665 172 99.4158 171.786 101.636 169.566L91.7369 159.666ZM95.3906 158H87.9506V172H95.3906V158ZM87.9506 158C88.1142 158 89.7009 158.001 91.2571 159.384L81.9561 169.848C84.0883 171.743 86.571 172 87.9506 172V158ZM91.8385 159.966C93.2217 161.522 93.2226 163.108 93.2226 163.272H79.2226C79.2226 164.652 79.4795 167.134 81.3747 169.266L91.8385 159.966ZM93.2226 163.272V160.272H79.2226V163.272H93.2226ZM93.2226 160.272V132.168H79.2226V160.272H93.2226ZM93.2226 132.168V129.168H79.2226V132.168H93.2226ZM93.2226 129.168C93.2226 129.319 93.2109 129.767 93.0302 130.377C92.8426 131.01 92.4312 131.947 91.5564 132.822L81.6568 122.922C79.4363 125.143 79.2226 127.892 79.2226 129.168H93.2226ZM91.5563 132.822C90.0062 134.372 88.2933 134.44 87.9506 134.44V120.44C86.3919 120.44 83.7831 120.796 81.6569 122.922L91.5563 132.822ZM87.9506 134.44H102.639V120.44H87.9506V134.44ZM102.639 134.44C104.399 134.44 105.527 134.62 106.183 134.81C106.826 134.997 106.726 135.107 106.43 134.788L116.703 125.276C113.018 121.296 107.432 120.44 102.639 120.44V134.44ZM106.43 134.788C106.619 134.991 106.967 135.438 106.967 136.8H120.967C120.967 132.594 119.714 128.529 116.703 125.276L106.43 134.788ZM106.967 136.8V139.8H120.967V136.8H106.967ZM106.967 139.8V142.944H120.967V139.8H106.967ZM106.967 142.944V145.944H120.967V142.944H106.967ZM106.967 145.944C106.967 147.306 106.619 147.753 106.43 147.956L116.703 157.468C119.714 154.215 120.967 150.15 120.967 145.944H106.967ZM106.43 147.956C106.726 147.637 106.826 147.747 106.183 147.934C105.527 148.124 104.399 148.304 102.639 148.304V162.304C107.432 162.304 113.018 161.448 116.703 157.468L106.43 147.956ZM102.639 148.304H97.1186V162.304H102.639V148.304ZM90.1186 155.304V160.272H104.119V155.304H90.1186ZM110.578 141.109C110.482 139.54 110.032 137.973 109.169 136.535L97.1641 143.737C96.8039 143.137 96.638 142.506 96.605 141.971L110.578 141.109ZM109.169 136.535C106.945 132.827 103.058 132.416 101.343 132.416V146.416C101.267 146.416 100.705 146.415 99.9244 146.107C99.0453 145.76 97.9408 145.032 97.1642 143.737L109.169 136.535ZM101.343 132.416H97.0226V146.416H101.343V132.416ZM90.0226 139.416V143.664H104.023V139.416H90.0226ZM97.0226 150.664H101.343V136.664H97.0226V150.664ZM101.343 150.664C103.058 150.664 106.944 150.253 109.169 146.545L97.1642 139.343C97.9409 138.048 99.0453 137.32 99.9245 136.973C100.705 136.665 101.267 136.664 101.343 136.664V150.664ZM109.169 146.545C110.032 145.107 110.482 143.54 110.578 141.971L96.605 141.109C96.638 140.574 96.8039 139.943 97.1641 139.343L109.169 146.545ZM147.168 132.486C147.037 130.824 146.535 129.013 145.385 127.352L133.874 135.32C133.365 134.585 133.237 133.908 133.211 133.588L147.168 132.486ZM145.518 127.551C143.236 124.002 139.477 123.44 137.389 123.44V137.44C137.369 137.44 136.884 137.444 136.182 137.163C135.39 136.846 134.438 136.206 133.741 135.121L145.518 127.551ZM137.389 123.44H132.589V137.44H137.389V123.44ZM125.589 130.44V135.632H139.589V130.44H125.589ZM132.589 142.632H137.389V128.632H132.589V142.632ZM137.389 142.632C139.299 142.632 143.026 142.192 145.385 138.784L133.874 130.816C134.637 129.713 135.622 129.13 136.344 128.862C136.683 128.736 136.954 128.681 137.119 128.657C137.284 128.632 137.381 128.632 137.389 128.632V142.632ZM145.518 138.585C146.549 136.98 147.038 135.244 147.168 133.583L133.211 132.49C133.235 132.184 133.35 131.623 133.741 131.015L145.518 138.585ZM125.589 159.696V162.696H139.589V159.696H125.589ZM125.589 162.696C125.589 162.556 125.609 160.992 127.064 159.538L136.963 169.438C139.185 167.216 139.589 164.457 139.589 162.696H125.589ZM127.064 159.538C127.896 158.706 128.776 158.327 129.337 158.16C129.875 158.001 130.236 158 130.285 158V172C131.764 172 134.657 171.744 136.963 169.438L127.064 159.538ZM130.285 158H120.429V172H130.285V158ZM120.429 158C120.488 158 120.813 158.003 121.296 158.141C121.8 158.285 122.548 158.598 123.288 159.256L113.987 169.72C116.215 171.701 118.847 172 120.429 172V158ZM123.869 159.837C124.527 160.578 124.84 161.326 124.984 161.829C125.122 162.312 125.125 162.637 125.125 162.696H111.125C111.125 164.278 111.425 166.91 113.405 169.139L123.869 159.837ZM125.125 162.696V159.696H111.125V162.696H125.125ZM125.125 159.696V121.224H111.125V159.696H125.125ZM125.125 121.224V118.224H111.125V121.224H125.125ZM125.125 118.224C125.125 118.273 125.124 118.635 124.965 119.173C124.799 119.734 124.419 120.614 123.587 121.446L113.688 111.546C111.382 113.852 111.125 116.745 111.125 118.224H125.125ZM123.587 121.446C122.133 122.9 120.569 122.92 120.429 122.92V108.92C118.668 108.92 115.91 109.324 113.688 111.546L123.587 121.446ZM120.429 122.92H141.741V108.92H120.429V122.92ZM141.741 122.92C143.687 122.92 144.968 123.13 145.746 123.367C146.499 123.597 146.541 123.775 146.378 123.592L156.817 114.264C152.968 109.957 147.066 108.92 141.741 108.92V122.92ZM146.484 123.708C146.897 124.151 147.349 124.894 147.349 126.608H161.349C161.349 122.007 159.967 117.631 156.711 114.148L146.484 123.708ZM147.349 126.608V129.552H161.349V126.608H147.349ZM147.349 129.552C147.349 129.55 147.349 129.549 147.349 129.555C147.349 129.559 147.349 129.569 147.349 129.58H161.349C161.349 129.582 161.349 129.583 161.349 129.577C161.349 129.574 161.349 129.563 161.349 129.552H147.349ZM147.349 129.58C147.349 129.592 147.349 129.602 147.349 129.606C147.349 129.611 147.349 129.61 147.349 129.608H161.349C161.349 129.597 161.349 129.586 161.349 129.583C161.349 129.577 161.349 129.578 161.349 129.58H147.349ZM147.349 129.608V132.552H161.349V129.608H147.349ZM147.349 132.552C147.349 133.648 147.177 134.187 147.094 134.377L159.94 139.943C160.967 137.573 161.349 135.04 161.349 132.552H147.349ZM147.049 134.483C147.065 134.447 147.083 134.406 147.105 134.362L159.617 140.642C159.751 140.376 159.873 140.107 159.985 139.837L147.049 134.483ZM150.654 143.957C150.789 144.014 150.903 144.087 151.048 144.254L161.619 135.074C160.096 133.321 158.229 131.953 156.068 131.047L150.654 143.957ZM151.117 144.332C151.165 144.386 151.509 144.739 151.509 146.128H165.509C165.509 142.141 164.403 138.185 161.55 134.996L151.117 144.332ZM151.509 146.128V149.128H165.509V146.128H151.509ZM151.509 149.128V159.696H165.509V149.128H151.509ZM151.509 159.696V162.696H165.509V159.696H151.509ZM151.509 162.696C151.509 162.556 151.529 160.992 152.984 159.538L162.883 169.438C165.105 167.216 165.509 164.457 165.509 162.696H151.509ZM152.984 159.538C153.816 158.706 154.696 158.327 155.257 158.16C155.795 158.001 156.156 158 156.205 158V172C157.684 172 160.577 171.744 162.883 169.438L152.984 159.538ZM156.205 158H146.285V172H156.205V158ZM146.285 158C146.344 158 146.669 158.003 147.152 158.141C147.656 158.285 148.404 158.598 149.144 159.256L139.843 169.72C142.071 171.7 144.703 172 146.285 172V158ZM149.725 159.838C150.383 160.578 150.696 161.326 150.84 161.829C150.978 162.312 150.981 162.637 150.981 162.696H136.981C136.981 164.278 137.281 166.91 139.261 169.138L149.725 159.838ZM150.981 162.696V159.696H136.981V162.696H150.981ZM150.981 159.696V152.904H136.981V159.696H150.981ZM150.981 152.904C150.981 151.268 150.691 148.487 148.608 146.173L138.202 155.539C137.526 154.787 137.227 154.038 137.099 153.583C137.035 153.355 137.007 153.178 136.994 153.071C136.981 152.964 136.981 152.905 136.981 152.904H150.981ZM149.067 146.739C146.812 143.639 143.43 143.152 141.549 143.152V157.152C141.46 157.152 139.316 157.134 137.744 154.973L149.067 146.739ZM141.549 143.152H132.589V157.152H141.549V143.152ZM125.589 150.152V159.696H139.589V150.152H125.589ZM185.592 142.748L184.263 138.452L170.888 142.588L172.217 146.884L185.592 142.748ZM183.972 137.677C183.612 136.866 182.897 135.534 181.517 134.43L172.771 145.362C172.214 144.916 171.844 144.461 171.617 144.132C171.388 143.802 171.252 143.526 171.179 143.363L183.972 137.677ZM182.093 134.946C180.567 133.42 178.588 132.704 176.664 132.704V146.704C175.971 146.704 175.164 146.586 174.328 146.251C173.484 145.914 172.766 145.418 172.194 144.846L182.093 134.946ZM176.664 132.704H175.464V146.704H176.664V132.704ZM175.464 132.704C173.572 132.704 171.875 133.38 170.563 134.43L179.309 145.362C178.317 146.156 176.972 146.704 175.464 146.704V132.704ZM169.986 134.946C168.96 135.973 168.413 137.098 168.155 137.677L180.949 143.363C180.92 143.426 180.844 143.592 180.705 143.817C180.576 144.028 180.315 144.416 179.885 144.846L169.986 134.946ZM167.864 138.452L166.536 142.748L179.911 146.884L181.239 142.588L167.864 138.452ZM173.223 151.816H178.904V137.816H173.223V151.816ZM168.304 150.6V147.6H154.304V150.6H168.304ZM168.304 160.272V150.6H154.304V160.272H168.304ZM168.304 163.272V160.272H154.304V163.272H168.304ZM166.92 159.965C168.303 161.522 168.304 163.109 168.304 163.272H154.304C154.304 164.651 154.561 167.134 156.456 169.267L166.92 159.965ZM163.032 158C163.195 158 164.782 158.001 166.338 159.384L157.037 169.848C159.169 171.743 161.652 172 163.032 172V158ZM170.088 158H163.032V172H170.088V158ZM166.434 159.666C167.309 158.791 168.246 158.38 168.879 158.192C169.489 158.012 169.937 158 170.088 158V172C171.364 172 174.113 171.786 176.334 169.566L166.434 159.666ZM164.816 163.272C164.816 162.929 164.884 161.217 166.434 159.666L176.334 169.566C178.46 167.439 178.816 164.831 178.816 163.272H164.816ZM164.816 160.272V163.272H178.816V160.272H164.816ZM164.816 156.552V160.272H178.816V156.552H164.816ZM180.312 149.552H171.816V163.552H180.312V149.552ZM187.312 160.272V156.552H173.312V160.272H187.312ZM187.312 163.272V160.272H173.312V163.272H187.312ZM185.694 159.666C187.244 161.216 187.312 162.929 187.312 163.272H173.312C173.312 164.831 173.668 167.44 175.794 169.566L185.694 159.666ZM182.184 158C182.308 158 182.658 158.01 183.147 158.14C183.65 158.274 184.377 158.558 185.117 159.15L176.371 170.082C178.46 171.753 180.796 172 182.184 172V158ZM189.432 158H182.184V172H189.432V158ZM185.778 159.666C186.653 158.791 187.59 158.38 188.223 158.192C188.833 158.012 189.281 158 189.432 158V172C190.708 172 193.457 171.786 195.678 169.566L185.778 159.666ZM184.16 163.272C184.16 162.929 184.228 161.216 185.778 159.666L195.678 169.566C197.804 167.44 198.16 164.831 198.16 163.272H184.16ZM184.16 160.272V163.272H198.16V160.272H184.16ZM184.16 150.6V160.272H198.16V150.6H184.16ZM184.16 147.6V150.6H198.16V147.6H184.16ZM183.899 146.027C184.12 146.887 184.16 147.387 184.16 147.6H198.16C198.16 145.893 197.88 144.185 197.46 142.549L183.899 146.027ZM182.754 142.433C183.319 143.9 183.667 145.03 183.859 145.862L197.501 142.714C197.117 141.05 196.537 139.268 195.821 137.407L182.754 142.433ZM178.575 131.529L182.751 142.425L195.824 137.415L191.648 126.519L178.575 131.529ZM180.531 133.786C179.346 133.056 178.751 132.035 178.511 131.354L191.713 126.694C191.088 124.925 189.886 123.104 187.869 121.862L180.531 133.786ZM182.712 134.44C182.37 134.44 181.396 134.368 180.317 133.648L188.083 122C186.236 120.768 184.27 120.44 182.712 120.44V134.44ZM169.8 134.44H182.712V120.44H169.8V134.44ZM171.885 133.786C170.905 134.389 170.062 134.44 169.8 134.44V120.44C168.258 120.44 166.359 120.747 164.547 121.862L171.885 133.786ZM173.953 131.354C173.769 131.876 173.261 132.873 172.099 133.648L164.333 122C162.403 123.287 161.319 125.084 160.751 126.694L173.953 131.354ZM169.712 142.425L173.888 131.529L160.815 126.519L156.639 137.415L169.712 142.425ZM168.516 146.027C168.749 145.119 169.133 143.932 169.709 142.433L156.642 137.407C155.939 139.236 155.363 140.961 154.955 142.549L168.516 146.027ZM168.304 147.6C168.304 147.312 168.351 146.754 168.557 145.862L154.915 142.714C154.545 144.318 154.304 145.968 154.304 147.6H168.304ZM198.822 160.272V163.272H212.822V160.272H198.822ZM198.822 163.272C198.822 162.929 198.89 161.217 200.441 159.666L210.34 169.566C212.466 167.439 212.822 164.831 212.822 163.272H198.822ZM200.441 159.666C201.315 158.791 202.253 158.38 202.886 158.192C203.496 158.012 203.944 158 204.094 158V172C205.37 172 208.12 171.786 210.34 169.566L200.441 159.666ZM204.094 158H196.894V172H204.094V158ZM196.894 158C197.058 158 198.645 158.001 200.201 159.384L190.9 169.848C193.032 171.743 195.515 172 196.894 172V158ZM200.782 159.965C202.166 161.522 202.166 163.109 202.166 163.272H188.166C188.166 164.651 188.423 167.134 190.319 169.267L200.782 159.965ZM202.166 163.272V160.272H188.166V163.272H202.166ZM202.166 160.272V132.168H188.166V160.272H202.166ZM202.166 132.168V129.168H188.166V132.168H202.166ZM202.166 129.168C202.166 129.319 202.155 129.767 201.974 130.377C201.786 131.01 201.375 131.947 200.5 132.822L190.601 122.922C188.38 125.143 188.166 127.892 188.166 129.168H202.166ZM200.5 132.822C198.95 134.372 197.237 134.44 196.894 134.44V120.44C195.336 120.44 192.727 120.796 190.601 122.922L200.5 132.822ZM196.894 134.44H201.886V120.44H196.894V134.44ZM201.886 134.44C201.797 134.44 201.241 134.431 200.489 134.084L206.356 121.372C204.771 120.641 203.192 120.44 201.886 120.44V134.44ZM200.665 134.162C199.891 133.83 199.504 133.407 199.429 133.321L210.008 124.151C209.101 123.105 207.85 122.01 206.18 121.294L200.665 134.162ZM199.447 133.342L208.759 143.998L219.301 134.786L209.989 124.13L199.447 133.342ZM221.03 139.392V132.168H207.03V139.392H221.03ZM221.03 132.168V129.168H207.03V132.168H221.03ZM221.03 129.168C221.03 129.319 221.019 129.767 220.838 130.377C220.65 131.01 220.239 131.947 219.364 132.822L209.465 122.922C207.244 125.143 207.03 127.892 207.03 129.168H221.03ZM219.364 132.822C217.814 134.372 216.101 134.44 215.758 134.44V120.44C214.2 120.44 211.591 120.796 209.465 122.922L219.364 132.822ZM215.758 134.44H222.958V120.44H215.758V134.44ZM222.958 134.44C222.706 134.44 220.7 134.409 219.022 132.523L229.486 123.221C227.297 120.759 224.426 120.44 222.958 120.44V134.44ZM219.604 133.104C217.717 131.427 217.686 129.42 217.686 129.168H231.686C231.686 127.7 231.368 124.829 228.905 122.64L219.604 133.104ZM217.686 129.168V132.168H231.686V129.168H217.686ZM217.686 132.168V160.272H231.686V132.168H217.686ZM217.686 160.272V163.272H231.686V160.272H217.686ZM217.686 163.272C217.686 162.929 217.754 161.217 219.305 159.666L229.204 169.566C231.33 167.439 231.686 164.831 231.686 163.272H217.686ZM219.305 159.666C220.179 158.791 221.117 158.38 221.75 158.192C222.36 158.012 222.808 158 222.958 158V172C224.234 172 226.984 171.786 229.204 169.566L219.305 159.666ZM222.958 158H215.758V172H222.958V158ZM215.758 158C215.922 158 217.509 158.001 219.065 159.384L209.764 169.848C211.896 171.743 214.379 172 215.758 172V158ZM219.646 159.965C221.03 161.522 221.03 163.109 221.03 163.272H207.03C207.03 164.651 207.287 167.134 209.183 169.267L219.646 159.965ZM221.03 163.272V160.272H207.03V163.272H221.03ZM221.03 160.272V157.368H207.03V160.272H221.03ZM219.427 152.91L211.219 142.974L200.426 151.89L208.634 161.826L219.427 152.91ZM198.822 147.432V160.272H212.822V147.432H198.822ZM233.283 160.272V163.272H247.283V160.272H233.283ZM233.283 163.272C233.283 162.929 233.351 161.216 234.901 159.666L244.801 169.566C246.927 167.44 247.283 164.831 247.283 163.272H233.283ZM234.901 159.666C235.776 158.791 236.713 158.38 237.346 158.192C237.956 158.012 238.404 158 238.555 158V172C239.831 172 242.58 171.786 244.801 169.566L234.901 159.666ZM238.555 158H231.115V172H238.555V158ZM231.115 158C231.279 158 232.865 158.001 234.422 159.384L225.12 169.848C227.253 171.743 229.735 172 231.115 172V158ZM235.003 159.965C236.386 161.522 236.387 163.109 236.387 163.272H222.387C222.387 164.651 222.644 167.134 224.539 169.267L235.003 159.965ZM236.387 163.272V160.272H222.387V163.272H236.387ZM236.387 160.272V132.168H222.387V160.272H236.387ZM236.387 132.168V129.168H222.387V132.168H236.387ZM236.387 129.168C236.387 129.319 236.375 129.767 236.195 130.377C236.007 131.01 235.596 131.947 234.721 132.822L224.821 122.922C222.601 125.143 222.387 127.892 222.387 129.168H236.387ZM234.721 132.822C233.171 134.372 231.458 134.44 231.115 134.44V120.44C229.556 120.44 226.947 120.796 224.821 122.922L234.721 132.822ZM231.115 134.44H238.555V120.44H231.115V134.44ZM238.555 134.44C238.303 134.44 236.296 134.409 234.619 132.523L245.083 123.221C242.894 120.759 240.023 120.44 238.555 120.44V134.44ZM235.201 133.104C233.314 131.427 233.283 129.42 233.283 129.168H247.283C247.283 127.7 246.964 124.829 244.501 122.64L235.201 133.104ZM233.283 129.168V132.168H247.283V129.168H233.283ZM233.283 132.168V140.208H247.283V132.168H233.283ZM240.283 147.208H242.203V133.208H240.283V147.208ZM248.605 143.038L253.549 131.854L240.745 126.194L235.801 137.378L248.605 143.038ZM253.671 131.561C253.542 131.893 253.015 133.037 251.586 133.87L244.532 121.778C242.335 123.059 241.2 125.003 240.623 126.487L253.671 131.561ZM251.942 133.648C250.863 134.368 249.889 134.44 249.547 134.44V120.44C247.989 120.44 246.023 120.768 244.176 122L251.942 133.648ZM249.547 134.44H256.939V120.44H249.547V134.44ZM256.939 134.44C256.531 134.44 253.942 134.34 252.219 131.755L263.867 123.989C261.76 120.828 258.434 120.44 256.939 120.44V134.44ZM252.443 132.072C251.386 130.662 251.136 129.145 251.181 128.061C251.222 127.087 251.49 126.428 251.582 126.218L264.408 131.83C264.874 130.765 266.226 127.116 263.643 123.672L252.443 132.072ZM251.583 126.217L250.947 127.668L263.772 133.282L264.407 131.831L251.583 126.217ZM256.092 137.359C255.141 137.184 253.425 136.564 252.219 134.755L263.867 126.989C262.386 124.768 260.215 123.883 258.628 123.591L256.092 137.359ZM252.443 135.072C251.386 133.662 251.136 132.145 251.181 131.061C251.222 130.087 251.49 129.428 251.582 129.218L264.408 134.83C264.874 133.765 266.226 130.116 263.643 126.672L252.443 135.072ZM251.583 129.217L247.927 137.567L260.752 143.181L264.407 134.831L251.583 129.217ZM252.814 147.206C252.779 147.198 252.663 147.166 252.508 147.076C252.351 146.986 252.228 146.878 252.147 146.787L262.595 137.469C260.778 135.431 258.452 134.12 255.865 133.542L252.814 147.206ZM252.282 146.934C252.218 146.867 252.155 146.786 252.101 146.697C252.048 146.608 252.015 146.532 251.997 146.481C251.96 146.378 252.003 146.434 252.003 146.736H266.003C266.003 143.429 265.025 140.037 262.46 137.322L252.282 146.934ZM252.003 146.736V149.736H266.003V146.736H252.003ZM252.003 149.736V160.272H266.003V149.736H252.003ZM252.003 160.272V163.272H266.003V160.272H252.003ZM252.003 163.272C252.003 162.929 252.071 161.216 253.621 159.666L263.521 169.566C265.647 167.44 266.003 164.831 266.003 163.272H252.003ZM253.621 159.666C254.496 158.791 255.433 158.38 256.066 158.192C256.676 158.012 257.124 158 257.275 158V172C258.551 172 261.3 171.786 263.521 169.566L253.621 159.666ZM257.275 158H249.883V172H257.275V158ZM249.883 158C250.047 158 251.633 158.001 253.189 159.384L243.889 169.848C246.021 171.743 248.503 172 249.883 172V158ZM253.771 159.966C255.154 161.522 255.155 163.108 255.155 163.272H241.155C241.155 164.652 241.412 167.134 243.307 169.266L253.771 159.966ZM255.155 163.272V160.272H241.155V163.272H255.155ZM255.155 160.272V153.912H241.155V160.272H255.155ZM255.155 153.912C255.155 152.259 254.728 150.003 253.003 148.062L242.539 157.362C241.326 155.997 241.155 154.541 241.155 153.912H255.155ZM253.003 148.061C251.019 145.829 248.438 145.28 246.619 145.28V159.28C245.824 159.28 244.011 159.019 242.539 157.363L253.003 148.061ZM246.619 145.28H240.283V159.28H246.619V145.28ZM233.283 152.28V160.272H247.283V152.28H233.283Z" fill="url(#paint3_linear_113_2)" mask="url(#path-10-outside-1_113_2)"/>
<path d="M36.176 165H25.808C24.9973 165 24.4 164.829 24.016 164.488C23.6747 164.104 23.504 163.507 23.504 162.696V131.272H14.096C13.2853 131.272 12.688 131.101 12.304 130.76C11.9627 130.376 11.792 129.779 11.792 128.968V121.224C11.792 120.413 11.9627 119.837 12.304 119.496C12.688 119.112 13.2853 118.92 14.096 118.92H47.888C48.6987 118.92 49.2747 119.112 49.616 119.496C50 119.837 50.192 120.413 50.192 121.224V128.968C50.192 129.779 50 130.376 49.616 130.76C49.2747 131.101 48.6987 131.272 47.888 131.272H38.48V162.696C38.48 163.507 38.288 164.104 37.904 164.488C37.5627 164.829 36.9867 165 36.176 165ZM82.032 155.928C82.032 157.4 81.808 158.744 81.36 159.96C80.944 161.144 80.176 162.168 79.056 163.032C77.968 163.864 76.448 164.52 74.496 165C72.576 165.48 70.128 165.72 67.152 165.72C64.176 165.72 61.712 165.48 59.76 165C57.808 164.52 56.272 163.864 55.152 163.032C54.064 162.168 53.296 161.144 52.848 159.96C52.432 158.744 52.224 157.4 52.224 155.928V139.56C52.224 138.088 52.432 136.76 52.848 135.576C53.296 134.36 54.064 133.32 55.152 132.456C56.272 131.592 57.808 130.92 59.76 130.44C61.712 129.96 64.176 129.72 67.152 129.72C70.128 129.72 72.576 129.96 74.496 130.44C76.448 130.92 77.968 131.592 79.056 132.456C80.176 133.32 80.944 134.36 81.36 135.576C81.808 136.76 82.032 138.088 82.032 139.56V155.928ZM63.12 154.2C63.12 154.84 63.36 155.384 63.84 155.832C64.32 156.248 65.424 156.456 67.152 156.456C68.88 156.456 69.984 156.248 70.464 155.832C70.944 155.384 71.184 154.84 71.184 154.2V141.288C71.184 140.68 70.944 140.168 70.464 139.752C69.984 139.304 68.88 139.08 67.152 139.08C65.424 139.08 64.32 139.304 63.84 139.752C63.36 140.168 63.12 140.68 63.12 141.288V154.2ZM95.3906 165H87.9506C87.3426 165 86.8946 164.872 86.6066 164.616C86.3506 164.328 86.2226 163.88 86.2226 163.272V132.168C86.2226 131.56 86.3506 131.128 86.6066 130.872C86.8946 130.584 87.3426 130.44 87.9506 130.44H102.639C106.991 130.44 109.967 131.304 111.567 133.032C113.167 134.76 113.967 137.016 113.967 139.8V145.944C113.967 148.728 113.167 150.984 111.567 152.712C109.967 154.44 106.991 155.304 102.639 155.304H97.1186V163.272C97.1186 163.88 96.9746 164.328 96.6866 164.616C96.4306 164.872 95.9986 165 95.3906 165ZM97.0226 139.416V146.664H101.343C102.271 146.664 102.879 146.424 103.167 145.944C103.455 145.464 103.599 144.92 103.599 144.312V141.768C103.599 141.16 103.455 140.616 103.167 140.136C102.879 139.656 102.271 139.416 101.343 139.416H97.0226Z" fill="url(#paint4_linear_113_2)"/>
<path d="M132.589 130.44V138.632H137.389C138.499 138.632 139.245 138.355 139.629 137.8C140.013 137.203 140.205 136.477 140.205 135.624V133.448C140.205 132.595 140.013 131.891 139.629 131.336C139.245 130.739 138.499 130.44 137.389 130.44H132.589ZM130.285 165H120.429C119.619 165 119.021 164.829 118.637 164.488C118.296 164.104 118.125 163.507 118.125 162.696V121.224C118.125 120.413 118.296 119.837 118.637 119.496C119.021 119.112 119.619 118.92 120.429 118.92H141.741C146.52 118.92 149.805 119.923 151.597 121.928C153.432 123.891 154.349 126.451 154.349 129.608V132.552C154.349 134.344 154.072 135.88 153.517 137.16C153.005 138.397 152.088 139.293 150.765 139.848C153.069 140.104 154.925 141.043 156.333 142.664C157.784 144.285 158.509 146.44 158.509 149.128V162.696C158.509 163.507 158.317 164.104 157.933 164.488C157.592 164.829 157.016 165 156.205 165H146.285C145.475 165 144.877 164.829 144.493 164.488C144.152 164.104 143.981 163.507 143.981 162.696V152.904C143.981 151.965 143.789 151.283 143.405 150.856C143.064 150.387 142.445 150.152 141.549 150.152H132.589V162.696C132.589 163.507 132.397 164.104 132.013 164.488C131.672 164.829 131.096 165 130.285 165ZM174.552 140.52L172.296 147.816H179.832L177.576 140.52C177.448 140.232 177.304 140.024 177.144 139.896C177.016 139.768 176.856 139.704 176.664 139.704H175.464C175.272 139.704 175.096 139.768 174.936 139.896C174.808 140.024 174.68 140.232 174.552 140.52ZM171.816 163.272C171.816 163.88 171.672 164.328 171.384 164.616C171.128 164.872 170.696 165 170.088 165H163.032C162.424 165 161.976 164.872 161.688 164.616C161.432 164.328 161.304 163.88 161.304 163.272V150.6C161.304 149.64 161.448 148.536 161.736 147.288C162.056 146.04 162.536 144.584 163.176 142.92L167.352 132.024C167.544 131.48 167.832 131.08 168.216 130.824C168.632 130.568 169.16 130.44 169.8 130.44H182.712C183.32 130.44 183.816 130.568 184.2 130.824C184.616 131.08 184.92 131.48 185.112 132.024L189.288 142.92C189.928 144.584 190.392 146.04 190.68 147.288C191 148.536 191.16 149.64 191.16 150.6V163.272C191.16 163.88 191.016 164.328 190.728 164.616C190.472 164.872 190.04 165 189.432 165H182.184C181.544 165 181.064 164.872 180.744 164.616C180.456 164.328 180.312 163.88 180.312 163.272V156.552H171.816V163.272ZM204.094 165H196.894C196.286 165 195.838 164.872 195.55 164.616C195.294 164.328 195.166 163.88 195.166 163.272V132.168C195.166 131.56 195.294 131.128 195.55 130.872C195.838 130.584 196.286 130.44 196.894 130.44H201.886C202.494 130.44 203.006 130.536 203.422 130.728C203.87 130.92 204.302 131.256 204.718 131.736L214.03 142.392V132.168C214.03 131.56 214.158 131.128 214.414 130.872C214.702 130.584 215.15 130.44 215.758 130.44H222.958C223.566 130.44 223.998 130.584 224.254 130.872C224.542 131.128 224.686 131.56 224.686 132.168V163.272C224.686 163.88 224.542 164.328 224.254 164.616C223.998 164.872 223.566 165 222.958 165H215.758C215.15 165 214.702 164.872 214.414 164.616C214.158 164.328 214.03 163.88 214.03 163.272V157.368L205.822 147.432V163.272C205.822 163.88 205.678 164.328 205.39 164.616C205.134 164.872 204.702 165 204.094 165ZM238.555 165H231.115C230.507 165 230.059 164.872 229.771 164.616C229.515 164.328 229.387 163.88 229.387 163.272V132.168C229.387 131.56 229.515 131.128 229.771 130.872C230.059 130.584 230.507 130.44 231.115 130.44H238.555C239.163 130.44 239.595 130.584 239.851 130.872C240.139 131.128 240.283 131.56 240.283 132.168V143.208H242.203L247.147 132.024C247.371 131.448 247.675 131.048 248.059 130.824C248.443 130.568 248.939 130.44 249.547 130.44H256.939C257.483 130.44 257.851 130.584 258.043 130.872C258.235 131.128 258.219 131.512 257.995 132.024L253.099 143.208C254.891 143.304 256.315 143.944 257.371 145.128C258.459 146.28 259.003 147.816 259.003 149.736V163.272C259.003 163.88 258.859 164.328 258.571 164.616C258.315 164.872 257.883 165 257.275 165H249.883C249.275 165 248.827 164.872 248.539 164.616C248.283 164.328 248.155 163.88 248.155 163.272V153.912C248.155 153.4 248.027 153 247.771 152.712C247.515 152.424 247.131 152.28 246.619 152.28H240.283V163.272C240.283 163.88 240.139 164.328 239.851 164.616C239.595 164.872 239.163 165 238.555 165Z" fill="url(#paint5_linear_113_2)"/>
<path d="M36.176 161H25.808C24.9973 161 24.4 160.829 24.016 160.488C23.6747 160.104 23.504 159.507 23.504 158.696V127.272H14.096C13.2853 127.272 12.688 127.101 12.304 126.76C11.9627 126.376 11.792 125.779 11.792 124.968V117.224C11.792 116.413 11.9627 115.837 12.304 115.496C12.688 115.112 13.2853 114.92 14.096 114.92H47.888C48.6987 114.92 49.2747 115.112 49.616 115.496C50 115.837 50.192 116.413 50.192 117.224V124.968C50.192 125.779 50 126.376 49.616 126.76C49.2747 127.101 48.6987 127.272 47.888 127.272H38.48V158.696C38.48 159.507 38.288 160.104 37.904 160.488C37.5627 160.829 36.9867 161 36.176 161ZM82.032 151.928C82.032 153.4 81.808 154.744 81.36 155.96C80.944 157.144 80.176 158.168 79.056 159.032C77.968 159.864 76.448 160.52 74.496 161C72.576 161.48 70.128 161.72 67.152 161.72C64.176 161.72 61.712 161.48 59.76 161C57.808 160.52 56.272 159.864 55.152 159.032C54.064 158.168 53.296 157.144 52.848 155.96C52.432 154.744 52.224 153.4 52.224 151.928V135.56C52.224 134.088 52.432 132.76 52.848 131.576C53.296 130.36 54.064 129.32 55.152 128.456C56.272 127.592 57.808 126.92 59.76 126.44C61.712 125.96 64.176 125.72 67.152 125.72C70.128 125.72 72.576 125.96 74.496 126.44C76.448 126.92 77.968 127.592 79.056 128.456C80.176 129.32 80.944 130.36 81.36 131.576C81.808 132.76 82.032 134.088 82.032 135.56V151.928ZM63.12 150.2C63.12 150.84 63.36 151.384 63.84 151.832C64.32 152.248 65.424 152.456 67.152 152.456C68.88 152.456 69.984 152.248 70.464 151.832C70.944 151.384 71.184 150.84 71.184 150.2V137.288C71.184 136.68 70.944 136.168 70.464 135.752C69.984 135.304 68.88 135.08 67.152 135.08C65.424 135.08 64.32 135.304 63.84 135.752C63.36 136.168 63.12 136.68 63.12 137.288V150.2ZM95.3906 161H87.9506C87.3426 161 86.8946 160.872 86.6066 160.616C86.3506 160.328 86.2226 159.88 86.2226 159.272V128.168C86.2226 127.56 86.3506 127.128 86.6066 126.872C86.8946 126.584 87.3426 126.44 87.9506 126.44H102.639C106.991 126.44 109.967 127.304 111.567 129.032C113.167 130.76 113.967 133.016 113.967 135.8V141.944C113.967 144.728 113.167 146.984 111.567 148.712C109.967 150.44 106.991 151.304 102.639 151.304H97.1186V159.272C97.1186 159.88 96.9746 160.328 96.6866 160.616C96.4306 160.872 95.9986 161 95.3906 161ZM97.0226 135.416V142.664H101.343C102.271 142.664 102.879 142.424 103.167 141.944C103.455 141.464 103.599 140.92 103.599 140.312V137.768C103.599 137.16 103.455 136.616 103.167 136.136C102.879 135.656 102.271 135.416 101.343 135.416H97.0226Z" fill="#FF7999"/>
<path d="M132.589 126.44V134.632H137.389C138.499 134.632 139.245 134.355 139.629 133.8C140.013 133.203 140.205 132.477 140.205 131.624V129.448C140.205 128.595 140.013 127.891 139.629 127.336C139.245 126.739 138.499 126.44 137.389 126.44H132.589ZM130.285 161H120.429C119.619 161 119.021 160.829 118.637 160.488C118.296 160.104 118.125 159.507 118.125 158.696V117.224C118.125 116.413 118.296 115.837 118.637 115.496C119.021 115.112 119.619 114.92 120.429 114.92H141.741C146.52 114.92 149.805 115.923 151.597 117.928C153.432 119.891 154.349 122.451 154.349 125.608V128.552C154.349 130.344 154.072 131.88 153.517 133.16C153.005 134.397 152.088 135.293 150.765 135.848C153.069 136.104 154.925 137.043 156.333 138.664C157.784 140.285 158.509 142.44 158.509 145.128V158.696C158.509 159.507 158.317 160.104 157.933 160.488C157.592 160.829 157.016 161 156.205 161H146.285C145.475 161 144.877 160.829 144.493 160.488C144.152 160.104 143.981 159.507 143.981 158.696V148.904C143.981 147.965 143.789 147.283 143.405 146.856C143.064 146.387 142.445 146.152 141.549 146.152H132.589V158.696C132.589 159.507 132.397 160.104 132.013 160.488C131.672 160.829 131.096 161 130.285 161ZM174.552 136.52L172.296 143.816H179.832L177.576 136.52C177.448 136.232 177.304 136.024 177.144 135.896C177.016 135.768 176.856 135.704 176.664 135.704H175.464C175.272 135.704 175.096 135.768 174.936 135.896C174.808 136.024 174.68 136.232 174.552 136.52ZM171.816 159.272C171.816 159.88 171.672 160.328 171.384 160.616C171.128 160.872 170.696 161 170.088 161H163.032C162.424 161 161.976 160.872 161.688 160.616C161.432 160.328 161.304 159.88 161.304 159.272V146.6C161.304 145.64 161.448 144.536 161.736 143.288C162.056 142.04 162.536 140.584 163.176 138.92L167.352 128.024C167.544 127.48 167.832 127.08 168.216 126.824C168.632 126.568 169.16 126.44 169.8 126.44H182.712C183.32 126.44 183.816 126.568 184.2 126.824C184.616 127.08 184.92 127.48 185.112 128.024L189.288 138.92C189.928 140.584 190.392 142.04 190.68 143.288C191 144.536 191.16 145.64 191.16 146.6V159.272C191.16 159.88 191.016 160.328 190.728 160.616C190.472 160.872 190.04 161 189.432 161H182.184C181.544 161 181.064 160.872 180.744 160.616C180.456 160.328 180.312 159.88 180.312 159.272V152.552H171.816V159.272ZM204.094 161H196.894C196.286 161 195.838 160.872 195.55 160.616C195.294 160.328 195.166 159.88 195.166 159.272V128.168C195.166 127.56 195.294 127.128 195.55 126.872C195.838 126.584 196.286 126.44 196.894 126.44H201.886C202.494 126.44 203.006 126.536 203.422 126.728C203.87 126.92 204.302 127.256 204.718 127.736L214.03 138.392V128.168C214.03 127.56 214.158 127.128 214.414 126.872C214.702 126.584 215.15 126.44 215.758 126.44H222.958C223.566 126.44 223.998 126.584 224.254 126.872C224.542 127.128 224.686 127.56 224.686 128.168V159.272C224.686 159.88 224.542 160.328 224.254 160.616C223.998 160.872 223.566 161 222.958 161H215.758C215.15 161 214.702 160.872 214.414 160.616C214.158 160.328 214.03 159.88 214.03 159.272V153.368L205.822 143.432V159.272C205.822 159.88 205.678 160.328 205.39 160.616C205.134 160.872 204.702 161 204.094 161ZM238.555 161H231.115C230.507 161 230.059 160.872 229.771 160.616C229.515 160.328 229.387 159.88 229.387 159.272V128.168C229.387 127.56 229.515 127.128 229.771 126.872C230.059 126.584 230.507 126.44 231.115 126.44H238.555C239.163 126.44 239.595 126.584 239.851 126.872C240.139 127.128 240.283 127.56 240.283 128.168V139.208H242.203L247.147 128.024C247.371 127.448 247.675 127.048 248.059 126.824C248.443 126.568 248.939 126.44 249.547 126.44H256.939C257.483 126.44 257.851 126.584 258.043 126.872C258.235 127.128 258.219 127.512 257.995 128.024L253.099 139.208C254.891 139.304 256.315 139.944 257.371 141.128C258.459 142.28 259.003 143.816 259.003 145.736V159.272C259.003 159.88 258.859 160.328 258.571 160.616C258.315 160.872 257.883 161 257.275 161H249.883C249.275 161 248.827 160.872 248.539 160.616C248.283 160.328 248.155 159.88 248.155 159.272V149.912C248.155 149.4 248.027 149 247.771 148.712C247.515 148.424 247.131 148.28 246.619 148.28H240.283V159.272C240.283 159.88 240.139 160.328 239.851 160.616C239.595 160.872 239.163 161 238.555 161Z" fill="#FDF36D"/>
</g>
<defs>
<filter id="filter0_d_113_2" x="121.033" y="42.6819" width="147.58" height="103.482" filterUnits="userSpaceOnUse" color-interpolation-filters="sRGB">
<feFlood flood-opacity="0" result="BackgroundImageFix"/>
<feColorMatrix in="SourceAlpha" type="matrix" values="0 0 0 0 0 0 0 0 0 0 0 0 0 0 0 0 0 0 127 0" result="hardAlpha"/>
<feOffset dy="1"/>
<feGaussianBlur stdDeviation="2.5"/>
<feComposite in2="hardAlpha" operator="out"/>
<feColorMatrix type="matrix" values="0 0 0 0 0 0 0 0 0 0 0 0 0 0 0 0 0 0 0.25 0"/>
<feBlend mode="normal" in2="BackgroundImageFix" result="effect1_dropShadow_113_2"/>
<feBlend mode="normal" in="SourceGraphic" in2="effect1_dropShadow_113_2" result="shape"/>
</filter>
<filter id="filter1_d_113_2" x="1" y="22.3044" width="147.58" height="124.038" filterUnits="userSpaceOnUse" color-interpolation-filters="sRGB">
<feFlood flood-opacity="0" result="BackgroundImageFix"/>
<feColorMatrix in="SourceAlpha" type="matrix" values="0 0 0 0 0 0 0 0 0 0 0 0 0 0 0 0 0 0 127 0" result="hardAlpha"/>
<feOffset dy="1"/>
<feGaussianBlur stdDeviation="2.5"/>
<feComposite in2="hardAlpha" operator="out"/>
<feColorMatrix type="matrix" values="0 0 0 0 0 0 0 0 0 0 0 0 0 0 0 0 0 0 0.25 0"/>
<feBlend mode="normal" in2="BackgroundImageFix" result="effect1_dropShadow_113_2"/>
<feBlend mode="normal" in="SourceGraphic" in2="effect1_dropShadow_113_2" result="shape"/>
</filter>
<filter id="filter2_d_113_2" x="62.0714" y="0" width="147.381" height="151" filterUnits="userSpaceOnUse" color-interpolation-filters="sRGB">
<feFlood flood-opacity="0" result="BackgroundImageFix"/>
<feColorMatrix in="SourceAlpha" type="matrix" values="0 0 0 0 0 0 0 0 0 0 0 0 0 0 0 0 0 0 127 0" result="hardAlpha"/>
<feOffset dy="1"/>
<feGaussianBlur stdDeviation="2.5"/>
<feComposite in2="hardAlpha" operator="out"/>
<feColorMatrix type="matrix" values="0 0 0 0 0 0 0 0 0 0 0 0 0 0 0 0 0 0 0.25 0"/>
<feBlend mode="normal" in2="BackgroundImageFix" result="effect1_dropShadow_113_2"/>
<feBlend mode="normal" in="SourceGraphic" in2="effect1_dropShadow_113_2" result="shape"/>
</filter>
<filter id="filter3_dd_113_2" x="0.791992" y="105.92" width="269.211" height="71.8" filterUnits="userSpaceOnUse" color-interpolation-filters="sRGB">
<feFlood flood-opacity="0" result="BackgroundImageFix"/>
<feColorMatrix in="SourceAlpha" type="matrix" values="0 0 0 0 0 0 0 0 0 0 0 0 0 0 0 0 0 0 127 0" result="hardAlpha"/>
<feMorphology radius="1" operator="dilate" in="SourceAlpha" result="effect1_dropShadow_113_2"/>
<feOffset dy="1"/>
<feGaussianBlur stdDeviation="1.5"/>
<feColorMatrix type="matrix" values="0 0 0 0 0 0 0 0 0 0 0 0 0 0 0 0 0 0 0.15 0"/>
<feBlend mode="normal" in2="BackgroundImageFix" result="effect1_dropShadow_113_2"/>
<feColorMatrix in="SourceAlpha" type="matrix" values="0 0 0 0 0 0 0 0 0 0 0 0 0 0 0 0 0 0 127 0" result="hardAlpha"/>
<feOffset dy="1"/>
<feGaussianBlur stdDeviation="1"/>
<feColorMatrix type="matrix" values="0 0 0 0 0 0 0 0 0 0 0 0 0 0 0 0 0 0 0.3 0"/>
<feBlend mode="normal" in2="effect1_dropShadow_113_2" result="effect2_dropShadow_113_2"/>
<feBlend mode="normal" in="SourceGraphic" in2="effect2_dropShadow_113_2" result="shape"/>
</filter>
<linearGradient id="paint0_linear_113_2" x1="194.823" y1="50.6819" x2="194.823" y2="136.164" gradientUnits="userSpaceOnUse">
<stop offset="0.205" stop-color="#09C6F9"/>
<stop offset="1" stop-color="#7CE8FF"/>
</linearGradient>
<linearGradient id="paint1_linear_113_2" x1="74.7902" y1="30.3044" x2="74.7902" y2="136.342" gradientUnits="userSpaceOnUse">
<stop offset="0.205" stop-color="#09C6F9"/>
<stop offset="1" stop-color="#7CE8FF"/>
</linearGradient>
<linearGradient id="paint2_linear_113_2" x1="135.762" y1="8" x2="135.762" y2="141" gradientUnits="userSpaceOnUse">
<stop offset="0.205" stop-color="#09C6F9"/>
<stop offset="1" stop-color="#7CE8FF"/>
</linearGradient>
<linearGradient id="paint3_linear_113_2" x1="135.063" y1="111.92" x2="135.063" y2="163.057" gradientUnits="userSpaceOnUse">
<stop stop-color="#006699"/>
<stop offset="1" stop-color="#004B82"/>
</linearGradient>
<linearGradient id="paint4_linear_113_2" x1="136" y1="103" x2="136" y2="180" gradientUnits="userSpaceOnUse">
<stop offset="0.2" stop-color="#E90038"/>
<stop offset="1" stop-color="#FF4672"/>
</linearGradient>
<linearGradient id="paint5_linear_113_2" x1="136" y1="103" x2="136" y2="180" gradientUnits="userSpaceOnUse">
<stop offset="0.2" stop-color="#E88C03"/>
<stop offset="1" stop-color="#FFBE2D"/>
</linearGradient>
</defs>
</svg>
